<?xml version="1.0" encoding="UTF-8" standalone="no"?>
<!DOCTYPE svg PUBLIC "-//W3C//DTD SVG 1.1//EN"
 "http://www.w3.org/Graphics/SVG/1.1/DTD/svg11.dtd">
<!-- Generated by graphviz version 2.26.3 (20100126.1600)
 -->
<!-- Title: G Pages: 1 -->
<svg width="1460pt" height="1227pt"
 viewBox="0.00 0.00 1459.58 1226.69" xmlns="http://www.w3.org/2000/svg" xmlns:xlink="http://www.w3.org/1999/xlink">
<g id="graph1" class="graph" transform="scale(1 1) rotate(0) translate(4 1222.69)">
<title>G</title>
<polygon fill="white" stroke="white" points="-4,5 -4,-1222.69 1456.58,-1222.69 1456.58,5 -4,5"/>
<!-- O -->
<g id="node1" class="node"><title>O</title>
<polygon fill="#7c93a0" stroke="#7c93a0" points="843.664,-593.092 843.664,-620.357 771.033,-639.635 668.317,-639.635 595.686,-620.357 595.686,-593.092 668.317,-573.814 771.033,-573.814 843.664,-593.092"/>
<text text-anchor="middle" x="719.675" y="-597.224" font-family="Times Roman,serif" font-size="30.00">OpenUDC</text>
</g>
<!-- a -->
<g id="node2" class="node"><title>a</title>
<polygon fill="#adc4e6" stroke="#adc4e6" points="1450.58,-645.724 1122.58,-645.724 1122.58,-567.724 1450.58,-567.724 1450.58,-645.724"/>
<text text-anchor="middle" x="1286.58" y="-614.724" font-family="Times Roman,serif" font-size="30.00">Synthèse de</text>
<text text-anchor="middle" x="1286.58" y="-579.724" font-family="Times Roman,serif" font-size="30.00">théories monétaires </text>
</g>
<!-- a&#45;&gt;O -->
<g id="edge2" class="edge"><title>a&#45;&gt;O</title>
<path fill="none" stroke="#2a3845" stroke-width="3" d="M1122.23,-606.724C1036.41,-606.724 932.779,-606.724 852.158,-606.724"/>
<ellipse fill="#2a3845" stroke="#2a3845" cx="847.935" cy="-606.725" rx="4" ry="4"/>
<text text-anchor="middle" x="987.194" y="-593.624" font-family="Times Roman,serif" font-size="14.00"> </text>
</g>
<!-- b -->
<g id="node3" class="node"><title>b</title>
<polygon fill="#adc4e6" stroke="#adc4e6" points="1318.68,-1020.91 970.676,-1020.91 970.676,-942.906 1318.68,-942.906 1318.68,-1020.91"/>
<text text-anchor="middle" x="1144.68" y="-989.906" font-family="Times Roman,serif" font-size="30.00">Synthèse de</text>
<text text-anchor="middle" x="1144.68" y="-954.906" font-family="Times Roman,serif" font-size="30.00">théories économiques</text>
</g>
<!-- b&#45;&gt;O -->
<g id="edge4" class="edge"><title>b&#45;&gt;O</title>
<path fill="none" stroke="#2a3845" stroke-width="3" d="M1100.4,-942.817C1018.55,-870.565 844.543,-716.956 763.238,-645.181"/>
<ellipse fill="#2a3845" stroke="#2a3845" cx="760.075" cy="-642.388" rx="4.00002" ry="4.00002"/>
<text text-anchor="middle" x="937.817" y="-782.899" font-family="Times Roman,serif" font-size="14.00"> </text>
</g>
<!-- c -->
<g id="node4" class="node"><title>c</title>
<polygon fill="#adc4e6" stroke="#adc4e6" points="952.803,-1217.69 722.803,-1217.69 722.803,-1104.69 952.803,-1104.69 952.803,-1217.69"/>
<text text-anchor="middle" x="837.803" y="-1186.69" font-family="Times Roman,serif" font-size="30.00">Règles </text>
<text text-anchor="middle" x="837.803" y="-1151.69" font-family="Times Roman,serif" font-size="30.00">de la monnaie</text>
<text text-anchor="middle" x="837.803" y="-1116.69" font-family="Times Roman,serif" font-size="30.00">Juridique</text>
</g>
<!-- c&#45;&gt;O -->
<g id="edge6" class="edge"><title>c&#45;&gt;O</title>
<path fill="none" stroke="#2a3845" stroke-width="3" d="M825.716,-1104.46C801.866,-992.512 749.257,-745.575 728.421,-647.774"/>
<ellipse fill="#2a3845" stroke="#2a3845" cx="727.573" cy="-643.798" rx="4.00001" ry="4.00001"/>
<text text-anchor="middle" x="772.068" y="-873.016" font-family="Times Roman,serif" font-size="14.00"> </text>
</g>
<!-- d -->
<g id="node5" class="node"><title>d</title>
<polygon fill="#ade6bf" stroke="#ade6bf" points="657.348,-1164.62 325.348,-1164.62 325.348,-1086.62 657.348,-1086.62 657.348,-1164.62"/>
<text text-anchor="middle" x="491.348" y="-1133.62" font-family="Times Roman,serif" font-size="30.00">Gestion des comptes</text>
<text text-anchor="middle" x="491.348" y="-1098.62" font-family="Times Roman,serif" font-size="30.00">et des transactions</text>
</g>
<!-- d&#45;&gt;O -->
<g id="edge8" class="edge"><title>d&#45;&gt;O</title>
<path fill="none" stroke="#2a3845" stroke-width="3" d="M508.509,-1086.62C550.667,-990.812 658.987,-744.644 701.84,-647.257"/>
<ellipse fill="#2a3845" stroke="#2a3845" cx="703.564" cy="-643.339" rx="4.00002" ry="4.00002"/>
<text text-anchor="middle" x="599.175" y="-860.838" font-family="Times Roman,serif" font-size="14.00"> </text>
</g>
<!-- e -->
<g id="node6" class="node"><title>e</title>
<polygon fill="#ade6bf" stroke="#ade6bf" points="367.57,-879.653 55.5704,-879.653 55.5704,-836.653 367.57,-836.653 367.57,-879.653"/>
<text text-anchor="middle" x="211.57" y="-848.653" font-family="Times Roman,serif" font-size="30.00">Outils de payement</text>
</g>
<!-- e&#45;&gt;O -->
<g id="edge10" class="edge"><title>e&#45;&gt;O</title>
<path fill="none" stroke="#2a3845" stroke-width="3" d="M255.331,-836.499C343.837,-792.703 544.686,-693.315 650.886,-640.764"/>
<ellipse fill="#2a3845" stroke="#2a3845" cx="654.78" cy="-638.837" rx="4.00002" ry="4.00002"/>
<text text-anchor="middle" x="449.108" y="-725.532" font-family="Times Roman,serif" font-size="14.00"> </text>
</g>
<!-- f -->
<g id="node7" class="node"><title>f</title>
<polygon fill="#ade6bf" stroke="#ade6bf" points="337,-528.525 1,-528.525 1,-415.525 337,-415.525 337,-528.525"/>
<text text-anchor="middle" x="169" y="-497.525" font-family="Times Roman,serif" font-size="30.00">Outils utilisateurs</text>
<text text-anchor="middle" x="169" y="-462.525" font-family="Times Roman,serif" font-size="30.00">(Mon compte,</text>
<text text-anchor="middle" x="169" y="-427.525" font-family="Times Roman,serif" font-size="30.00">mes transactions, ...)</text>
</g>
<!-- f&#45;&gt;O -->
<g id="edge12" class="edge"><title>f&#45;&gt;O</title>
<path fill="none" stroke="#2a3845" stroke-width="3" d="M337.213,-513.171C429.715,-535.798 541.33,-563.1 620.041,-582.353"/>
<ellipse fill="#2a3845" stroke="#2a3845" cx="624.147" cy="-583.358" rx="4.00001" ry="4.00001"/>
<text text-anchor="middle" x="480.627" y="-534.662" font-family="Times Roman,serif" font-size="14.00"> </text>
</g>
<!-- g -->
<g id="node8" class="node"><title>g</title>
<polygon fill="#e6dfad" stroke="#e6dfad" points="550.048,-185.211 228.048,-185.211 228.048,-107.211 550.048,-107.211 550.048,-185.211"/>
<text text-anchor="middle" x="389.048" y="-154.211" font-family="Times Roman,serif" font-size="30.00">Aide à la </text>
<text text-anchor="middle" x="389.048" y="-119.211" font-family="Times Roman,serif" font-size="30.00">transition monétaire</text>
</g>
<!-- g&#45;&gt;O -->
<g id="edge14" class="edge"><title>g&#45;&gt;O</title>
<path fill="none" stroke="#2a3845" stroke-width="3" d="M417.237,-185.474C479.562,-272.283 628.489,-479.716 691.136,-566.974"/>
<ellipse fill="#2a3845" stroke="#2a3845" cx="693.521" cy="-570.295" rx="4.00002" ry="4.00002"/>
<text text-anchor="middle" x="548.186" y="-376.124" font-family="Times Roman,serif" font-size="14.00"> </text>
</g>
<!-- h -->
<g id="node9" class="node"><title>h</title>
<polygon fill="#e6dfad" stroke="#e6dfad" points="810.177,-79 600.177,-79 600.177,-1 810.177,-1 810.177,-79"/>
<text text-anchor="middle" x="705.177" y="-48" font-family="Times Roman,serif" font-size="30.00">Recueil </text>
<text text-anchor="middle" x="705.177" y="-13" font-family="Times Roman,serif" font-size="30.00">d&#39;expérience</text>
</g>
<!-- h&#45;&gt;O -->
<g id="edge16" class="edge"><title>h&#45;&gt;O</title>
<path fill="none" stroke="#2a3845" stroke-width="3" d="M706.185,-79.401C708.826,-182.659 715.931,-460.388 718.622,-565.58"/>
<ellipse fill="#2a3845" stroke="#2a3845" cx="718.729" cy="-569.741" rx="4" ry="4"/>
<text text-anchor="middle" x="715.403" y="-318.391" font-family="Times Roman,serif" font-size="14.00"> </text>
</g>
<!-- i -->
<g id="node10" class="node"><title>i</title>
<polygon fill="#e6adad" stroke="#e6adad" points="1118.13,-132.181 870.134,-132.181 870.134,-89.1813 1118.13,-89.1813 1118.13,-132.181"/>
<text text-anchor="middle" x="994.134" y="-101.181" font-family="Times Roman,serif" font-size="30.00">Documentation</text>
</g>
<!-- i&#45;&gt;O -->
<g id="edge18" class="edge"><title>i&#45;&gt;O</title>
<path fill="none" stroke="#2a3845" stroke-width="3" d="M982.165,-132.315C939.94,-208.63 797.505,-466.059 742.041,-566.301"/>
<ellipse fill="#2a3845" stroke="#2a3845" cx="739.98" cy="-570.026" rx="4.00002" ry="4.00002"/>
<text text-anchor="middle" x="856.103" y="-342.208" font-family="Times Roman,serif" font-size="14.00"> </text>
</g>
<!-- j -->
<g id="node11" class="node"><title>j</title>
<polygon fill="#e6adad" stroke="#e6adad" points="1283.57,-323.261 1111.57,-323.261 1111.57,-280.261 1283.57,-280.261 1283.57,-323.261"/>
<text text-anchor="middle" x="1197.57" y="-292.261" font-family="Times Roman,serif" font-size="30.00">Traduction</text>
</g>
<!-- j&#45;&gt;O -->
<g id="edge20" class="edge"><title>j&#45;&gt;O</title>
<path fill="none" stroke="#2a3845" stroke-width="3" d="M1163.58,-323.449C1082.91,-374.928 879.104,-504.986 778.168,-569.398"/>
<ellipse fill="#2a3845" stroke="#2a3845" cx="774.748" cy="-571.58" rx="4.00002" ry="4.00002"/>
<text text-anchor="middle" x="965.876" y="-434.323" font-family="Times Roman,serif" font-size="14.00"> </text>
</g>
</g>
</svg>
