<?xml version="1.0" encoding="UTF-8" standalone="no"?>
<!DOCTYPE svg PUBLIC "-//W3C//DTD SVG 1.1//EN"
 "http://www.w3.org/Graphics/SVG/1.1/DTD/svg11.dtd">
<!-- Generated by graphviz version 2.26.3 (20100126.1600)
 -->
<!-- Title: G Pages: 1 -->
<svg width="1368pt" height="1117pt"
 viewBox="0.00 0.00 1368.23 1117.26" xmlns="http://www.w3.org/2000/svg" xmlns:xlink="http://www.w3.org/1999/xlink">
<g id="graph1" class="graph" transform="scale(1 1) rotate(0) translate(4 1113.26)">
<title>G</title>
<polygon fill="white" stroke="white" points="-4,5 -4,-1113.26 1365.23,-1113.26 1365.23,5 -4,5"/>
<!-- O -->
<g id="node1" class="node"><title>O</title>
<polygon fill="#7c93a0" stroke="#7c93a0" points="803.047,-539.454 803.047,-566.718 730.416,-585.997 627.7,-585.997 555.069,-566.718 555.069,-539.454 627.7,-520.176 730.416,-520.176 803.047,-539.454"/>
<text text-anchor="middle" x="679.058" y="-543.586" font-family="Times Roman,serif" font-size="30.00">OpenUDC</text>
</g>
<!-- a -->
<g id="node2" class="node"><title>a</title>
<polygon fill="#adc4e6" stroke="#adc4e6" points="1359.23,-592.086 1065.23,-592.086 1065.23,-514.086 1359.23,-514.086 1359.23,-592.086"/>
<text text-anchor="middle" x="1212.23" y="-561.086" font-family="Times Roman,serif" font-size="30.00">Synthesis of</text>
<text text-anchor="middle" x="1212.23" y="-526.086" font-family="Times Roman,serif" font-size="30.00">monetary theories</text>
</g>
<!-- a&#45;&gt;O -->
<g id="edge2" class="edge"><title>a&#45;&gt;O</title>
<path fill="none" stroke="#2a3845" stroke-width="3" d="M1065.12,-553.086C985.72,-553.086 888.484,-553.086 811.462,-553.086"/>
<ellipse fill="#2a3845" stroke="#2a3845" cx="807.124" cy="-553.086" rx="4" ry="4"/>
<text text-anchor="middle" x="938.293" y="-539.986" font-family="Times Roman,serif" font-size="14.00"> </text>
</g>
<!-- b -->
<g id="node3" class="node"><title>b</title>
<polygon fill="#adc4e6" stroke="#adc4e6" points="1237.78,-929.624 945.778,-929.624 945.778,-851.624 1237.78,-851.624 1237.78,-929.624"/>
<text text-anchor="middle" x="1091.78" y="-898.624" font-family="Times Roman,serif" font-size="30.00">Synthesis of</text>
<text text-anchor="middle" x="1091.78" y="-863.624" font-family="Times Roman,serif" font-size="30.00">economic theories</text>
</g>
<!-- b&#45;&gt;O -->
<g id="edge4" class="edge"><title>b&#45;&gt;O</title>
<path fill="none" stroke="#2a3845" stroke-width="3" d="M1044.03,-851.575C964.262,-786.337 804.872,-655.982 725.787,-591.303"/>
<ellipse fill="#2a3845" stroke="#2a3845" cx="722.407" cy="-588.539" rx="4.00002" ry="4.00002"/>
<text text-anchor="middle" x="890.909" y="-710.339" font-family="Times Roman,serif" font-size="14.00"> </text>
</g>
<!-- c -->
<g id="node4" class="node"><title>c</title>
<polygon fill="#adc4e6" stroke="#adc4e6" points="930.62,-1108.26 694.62,-1108.26 694.62,-1030.26 930.62,-1030.26 930.62,-1108.26"/>
<text text-anchor="middle" x="812.62" y="-1077.26" font-family="Times Roman,serif" font-size="30.00">Rules currency</text>
<text text-anchor="middle" x="812.62" y="-1042.26" font-family="Times Roman,serif" font-size="30.00">Legal</text>
</g>
<!-- c&#45;&gt;O -->
<g id="edge6" class="edge"><title>c&#45;&gt;O</title>
<path fill="none" stroke="#2a3845" stroke-width="3" d="M802.472,-1030.04C777.78,-934.612 714.76,-691.063 689.634,-593.957"/>
<ellipse fill="#2a3845" stroke="#2a3845" cx="688.608" cy="-589.993" rx="4.00001" ry="4.00001"/>
<text text-anchor="middle" x="751.053" y="-806.896" font-family="Times Roman,serif" font-size="14.00"> </text>
</g>
<!-- d -->
<g id="node5" class="node"><title>d</title>
<polygon fill="#ade6bf" stroke="#ade6bf" points="633.113,-1065.66 235.113,-1065.66 235.113,-987.659 633.113,-987.659 633.113,-1065.66"/>
<text text-anchor="middle" x="434.113" y="-1034.66" font-family="Times Roman,serif" font-size="30.00">Management of accounts</text>
<text text-anchor="middle" x="434.113" y="-999.659" font-family="Times Roman,serif" font-size="30.00">and transactions</text>
</g>
<!-- d&#45;&gt;O -->
<g id="edge8" class="edge"><title>d&#45;&gt;O</title>
<path fill="none" stroke="#2a3845" stroke-width="3" d="M454.366,-987.502C500.243,-898.805 611.704,-683.308 658.175,-593.462"/>
<ellipse fill="#2a3845" stroke="#2a3845" cx="660.099" cy="-589.741" rx="4.00002" ry="4.00002"/>
<text text-anchor="middle" x="550.271" y="-783.382" font-family="Times Roman,serif" font-size="14.00"> </text>
</g>
<!-- e -->
<g id="node6" class="node"><title>e</title>
<polygon fill="#ade6bf" stroke="#ade6bf" points="283.64,-803.604 95.6405,-803.604 95.6405,-725.604 283.64,-725.604 283.64,-803.604"/>
<text text-anchor="middle" x="189.64" y="-772.604" font-family="Times Roman,serif" font-size="30.00">Tools</text>
<text text-anchor="middle" x="189.64" y="-737.604" font-family="Times Roman,serif" font-size="30.00">of payment</text>
</g>
<!-- e&#45;&gt;O -->
<g id="edge10" class="edge"><title>e&#45;&gt;O</title>
<path fill="none" stroke="#2a3845" stroke-width="3" d="M279.978,-725.562C373.373,-685.198 517.475,-622.92 604.569,-585.279"/>
<ellipse fill="#2a3845" stroke="#2a3845" cx="608.365" cy="-583.639" rx="4.00002" ry="4.00002"/>
<text text-anchor="middle" x="438.274" y="-642.32" font-family="Times Roman,serif" font-size="14.00"> </text>
</g>
<!-- f -->
<g id="node7" class="node"><title>f</title>
<polygon fill="#ade6bf" stroke="#ade6bf" points="311,-506.245 1,-506.245 1,-393.245 311,-393.245 311,-506.245"/>
<text text-anchor="middle" x="156" y="-475.245" font-family="Times Roman,serif" font-size="30.00">User Tools</text>
<text text-anchor="middle" x="156" y="-440.245" font-family="Times Roman,serif" font-size="30.00">(my account,</text>
<text text-anchor="middle" x="156" y="-405.245" font-family="Times Roman,serif" font-size="30.00">my transactions,...)</text>
</g>
<!-- f&#45;&gt;O -->
<g id="edge12" class="edge"><title>f&#45;&gt;O</title>
<path fill="none" stroke="#2a3845" stroke-width="3" d="M311.165,-480.401C394.568,-496.879 495.367,-516.794 570.35,-531.609"/>
<ellipse fill="#2a3845" stroke="#2a3845" cx="574.517" cy="-532.432" rx="4.00001" ry="4.00001"/>
<text text-anchor="middle" x="439.757" y="-510.905" font-family="Times Roman,serif" font-size="14.00"> </text>
</g>
<!-- g -->
<g id="node8" class="node"><title>g</title>
<polygon fill="#e6dfad" stroke="#e6dfad" points="482.52,-179.367 200.52,-179.367 200.52,-101.367 482.52,-101.367 482.52,-179.367"/>
<text text-anchor="middle" x="341.52" y="-148.367" font-family="Times Roman,serif" font-size="30.00">Help for</text>
<text text-anchor="middle" x="341.52" y="-113.367" font-family="Times Roman,serif" font-size="30.00">monetary change</text>
</g>
<!-- g&#45;&gt;O -->
<g id="edge14" class="edge"><title>g&#45;&gt;O</title>
<path fill="none" stroke="#2a3845" stroke-width="3" d="M373.579,-179.567C437.924,-258.243 582.151,-434.595 646.723,-513.549"/>
<ellipse fill="#2a3845" stroke="#2a3845" cx="649.444" cy="-516.876" rx="4.00002" ry="4.00002"/>
<text text-anchor="middle" x="504.151" y="-347.458" font-family="Times Roman,serif" font-size="14.00"> </text>
</g>
<!-- h -->
<g id="node9" class="node"><title>h</title>
<polygon fill="#e6dfad" stroke="#e6dfad" points="726.643,-44 526.643,-44 526.643,-1 726.643,-1 726.643,-44"/>
<text text-anchor="middle" x="626.643" y="-13" font-family="Times Roman,serif" font-size="30.00">Experiences</text>
</g>
<!-- h&#45;&gt;O -->
<g id="edge16" class="edge"><title>h&#45;&gt;O</title>
<path fill="none" stroke="#2a3845" stroke-width="3" d="M628.795,-44.2888C636.739,-124.696 664.487,-405.584 674.989,-511.893"/>
<ellipse fill="#2a3845" stroke="#2a3845" cx="675.41" cy="-516.158" rx="4" ry="4"/>
<text text-anchor="middle" x="647.892" y="-273.991" font-family="Times Roman,serif" font-size="14.00"> </text>
</g>
<!-- i -->
<g id="node10" class="node"><title>i</title>
<polygon fill="#e6adad" stroke="#e6adad" points="1038.18,-96.0611 790.181,-96.0611 790.181,-53.0611 1038.18,-53.0611 1038.18,-96.0611"/>
<text text-anchor="middle" x="914.181" y="-65.0611" font-family="Times Roman,serif" font-size="30.00">Documentation</text>
</g>
<!-- i&#45;&gt;O -->
<g id="edge18" class="edge"><title>i&#45;&gt;O</title>
<path fill="none" stroke="#2a3845" stroke-width="3" d="M903.467,-96.3658C866.912,-170.763 746.725,-415.369 698.923,-512.657"/>
<ellipse fill="#2a3845" stroke="#2a3845" cx="697.101" cy="-516.365" rx="4.00002" ry="4.00002"/>
<text text-anchor="middle" x="795.195" y="-297.411" font-family="Times Roman,serif" font-size="14.00"> </text>
</g>
<!-- j -->
<g id="node11" class="node"><title>j</title>
<polygon fill="#e6adad" stroke="#e6adad" points="1214.44,-283.015 1036.44,-283.015 1036.44,-240.015 1214.44,-240.015 1214.44,-283.015"/>
<text text-anchor="middle" x="1125.44" y="-252.015" font-family="Times Roman,serif" font-size="30.00">Translation</text>
</g>
<!-- j&#45;&gt;O -->
<g id="edge20" class="edge"><title>j&#45;&gt;O</title>
<path fill="none" stroke="#2a3845" stroke-width="3" d="M1092.25,-283.192C1016.76,-332.505 831.391,-453.584 736.726,-515.418"/>
<ellipse fill="#2a3845" stroke="#2a3845" cx="733.141" cy="-517.76" rx="4.00002" ry="4.00002"/>
<text text-anchor="middle" x="919.489" y="-403.205" font-family="Times Roman,serif" font-size="14.00"> </text>
</g>
</g>
</svg>
