<?xml version="1.0" encoding="UTF-8" standalone="no"?>
<!DOCTYPE svg PUBLIC "-//W3C//DTD SVG 1.1//EN"
 "http://www.w3.org/Graphics/SVG/1.1/DTD/svg11.dtd">
<!-- Generated by graphviz version 2.26.3 (20100126.1600)
 -->
<!-- Title: G Pages: 1 -->
<svg width="1143pt" height="959pt"
 viewBox="0.00 0.00 1142.71 959.44" xmlns="http://www.w3.org/2000/svg" xmlns:xlink="http://www.w3.org/1999/xlink">
<g id="graph1" class="graph" transform="scale(1 1) rotate(0) translate(4 955.439)">
<title>G</title>
<polygon fill="white" stroke="white" points="-4,5 -4,-955.439 1139.71,-955.439 1139.71,5 -4,5"/>
<!-- m1 -->
<g id="node1" class="node"><title>m1</title>
<image xlink:href="man.svg" width="215px" height="289px" preserveAspectRatio="xMinYMin meet" x="2" y="-620.22"/>
</g>
<!-- m4 -->
<g id="node4" class="node"><title>m4</title>
<image xlink:href="man.svg" width="215px" height="289px" preserveAspectRatio="xMinYMin meet" x="291.5" y="-620.22"/>
</g>
<!-- m1&#45;&gt;m4 -->
<g id="edge16" class="edge"><title>m1&#45;&gt;m4</title>
<path fill="none" stroke="#2a3845" stroke-width="3" d="M217.711,-482.275C235.004,-482.463 253.041,-482.515 270.745,-482.431"/>
<polygon fill="#2a3845" stroke="#2a3845" points="290.92,-482.273 270.991,-491.429 280.928,-483.351 270.929,-483.429 270.921,-482.429 270.913,-481.429 280.913,-481.351 270.851,-473.43 290.92,-482.273 290.92,-482.273"/>
<text text-anchor="middle" x="244.228" y="-487.253" font-family="Times Roman,serif" font-size="14.00"> </text>
</g>
<!-- m2 -->
<g id="node2" class="node"><title>m2</title>
<image xlink:href="man.svg" width="215px" height="289px" preserveAspectRatio="xMinYMin meet" x="917.713" y="-416.751"/>
</g>
<!-- m3 -->
<g id="node3" class="node"><title>m3</title>
<image xlink:href="man.svg" width="215px" height="289px" preserveAspectRatio="xMinYMin meet" x="530.692" y="-291"/>
</g>
<!-- m2&#45;&gt;m3 -->
<g id="edge2" class="edge"><title>m2&#45;&gt;m3</title>
<path fill="none" stroke="#2a3845" stroke-width="3" d="M916.988,-230.61C869.963,-214.582 814.54,-196.502 765.548,-181.189"/>
<polygon fill="#2a3845" stroke="#2a3845" points="746.412,-175.249 768.181,-172.583 756.259,-177.259 765.809,-180.223 765.513,-181.178 765.216,-182.133 755.666,-179.169 762.844,-189.774 746.412,-175.249 746.412,-175.249"/>
<text text-anchor="middle" x="844.268" y="-192.8" font-family="Times Roman,serif" font-size="14.00"> </text>
</g>
<!-- m3&#45;&gt;m2 -->
<g id="edge4" class="edge"><title>m3&#45;&gt;m2</title>
<path fill="none" stroke="#2a3845" stroke-width="3" d="M746.417,-188.14C793.442,-204.169 848.865,-222.249 897.857,-237.561"/>
<polygon fill="#2a3845" stroke="#2a3845" points="916.993,-243.502 895.224,-246.168 907.146,-241.492 897.596,-238.527 897.892,-237.572 898.189,-236.617 907.739,-239.582 900.561,-228.977 916.993,-243.502 916.993,-243.502"/>
<text text-anchor="middle" x="825.137" y="-199.751" font-family="Times Roman,serif" font-size="14.00"> </text>
</g>
<!-- m3&#45;&gt;m4 -->
<g id="edge6" class="edge"><title>m3&#45;&gt;m4</title>
<path fill="none" stroke="#2a3845" stroke-width="3" d="M532.234,-292.338C527.032,-299.499 521.795,-306.707 516.562,-313.909"/>
<polygon fill="#2a3845" stroke="#2a3845" points="504.762,-330.15 509.237,-308.68 509.831,-321.472 515.709,-313.382 516.518,-313.97 517.327,-314.558 511.449,-322.648 523.799,-319.26 504.762,-330.15 504.762,-330.15"/>
<text text-anchor="middle" x="530.398" y="-303.023" font-family="Times Roman,serif" font-size="14.00"> </text>
</g>
<!-- m6 -->
<g id="node6" class="node"><title>m6</title>
<image xlink:href="man.svg" width="215px" height="289px" preserveAspectRatio="xMinYMin meet" x="530.692" y="-949.439"/>
</g>
<!-- m3&#45;&gt;m6 -->
<g id="edge18" class="edge"><title>m3&#45;&gt;m6</title>
<path fill="none" stroke="#2a3845" stroke-width="3" d="M638.192,-292.221C638.192,-394.797 638.192,-532.294 638.192,-639.078"/>
<polygon fill="#2a3845" stroke="#2a3845" points="638.192,-659.324 629.192,-639.324 637.192,-649.324 637.192,-639.324 638.192,-639.324 639.192,-639.324 639.192,-649.324 647.192,-639.324 638.192,-659.324 638.192,-659.324"/>
<text text-anchor="middle" x="641.192" y="-461.549" font-family="Times Roman,serif" font-size="14.00"> </text>
</g>
<!-- m4&#45;&gt;m1 -->
<g id="edge14" class="edge"><title>m4&#45;&gt;m1</title>
<path fill="none" stroke="#2a3845" stroke-width="3" d="M290.789,-469.165C273.496,-468.976 255.459,-468.924 237.755,-469.009"/>
<polygon fill="#2a3845" stroke="#2a3845" points="217.58,-469.166 237.509,-460.01 227.572,-468.088 237.571,-468.01 237.579,-469.01 237.587,-470.01 227.587,-470.088 237.649,-478.01 217.58,-469.166 217.58,-469.166"/>
<text text-anchor="middle" x="264.272" y="-455.987" font-family="Times Roman,serif" font-size="14.00"> </text>
</g>
<!-- m4&#45;&gt;m6 -->
<g id="edge8" class="edge"><title>m4&#45;&gt;m6</title>
<path fill="none" stroke="#2a3845" stroke-width="3" d="M496.76,-621.661C503.807,-631.445 510.959,-641.319 518.114,-651.14"/>
<polygon fill="#2a3845" stroke="#2a3845" points="530.138,-667.596 511.072,-656.758 523.431,-660.112 517.531,-652.038 518.338,-651.448 519.146,-650.858 525.046,-658.932 525.605,-646.138 530.138,-667.596 530.138,-667.596"/>
<text text-anchor="middle" x="501.437" y="-636.301" font-family="Times Roman,serif" font-size="14.00"> </text>
</g>
<!-- m5 -->
<g id="node5" class="node"><title>m5</title>
<image xlink:href="man.svg" width="215px" height="289px" preserveAspectRatio="xMinYMin meet" x="917.713" y="-823.689"/>
</g>
<!-- m5&#45;&gt;m2 -->
<g id="edge10" class="edge"><title>m5&#45;&gt;m2</title>
<path fill="none" stroke="#2a3845" stroke-width="3" d="M1025.21,-533.424C1025.21,-502.503 1025.21,-469.643 1025.21,-438.04"/>
<polygon fill="#2a3845" stroke="#2a3845" points="1025.21,-418.023 1034.21,-438.023 1026.21,-428.023 1026.21,-438.023 1025.21,-438.023 1024.21,-438.023 1024.21,-428.023 1016.21,-438.023 1025.21,-418.023 1025.21,-418.023"/>
<text text-anchor="middle" x="1022.21" y="-481.632" font-family="Times Roman,serif" font-size="14.00"> </text>
</g>
<!-- m6&#45;&gt;m4 -->
<g id="edge12" class="edge"><title>m6&#45;&gt;m4</title>
<path fill="none" stroke="#2a3845" stroke-width="3" d="M540.432,-658.998C533.385,-649.213 526.233,-639.34 519.078,-629.519"/>
<polygon fill="#2a3845" stroke="#2a3845" points="507.054,-613.063 526.121,-623.901 513.761,-620.547 519.661,-628.621 518.854,-629.211 518.046,-629.801 512.147,-621.727 511.587,-634.521 507.054,-613.063 507.054,-613.063"/>
<text text-anchor="middle" x="523.755" y="-644.158" font-family="Times Roman,serif" font-size="14.00"> </text>
</g>
<!-- m6&#45;&gt;m5 -->
<g id="edge20" class="edge"><title>m6&#45;&gt;m5</title>
<path fill="none" stroke="#2a3845" stroke-width="3" d="M746.256,-769.827C793.345,-754.527 848.879,-736.483 897.95,-720.539"/>
<polygon fill="#2a3845" stroke="#2a3845" points="917.115,-714.312 900.875,-729.051 907.914,-718.353 898.403,-721.443 898.094,-720.492 897.785,-719.541 907.296,-716.451 895.313,-711.932 917.115,-714.312 917.115,-714.312"/>
<text text-anchor="middle" x="825.103" y="-750.083" font-family="Times Roman,serif" font-size="14.00"> </text>
</g>
</g>
</svg>
