<?xml version="1.0" encoding="UTF-8" standalone="no"?>
<!DOCTYPE svg PUBLIC "-//W3C//DTD SVG 1.1//EN"
 "http://www.w3.org/Graphics/SVG/1.1/DTD/svg11.dtd">
<!-- Generated by graphviz version 2.26.3 (20100126.1600)
 -->
<!-- Title: G Pages: 1 -->
<svg width="717pt" height="733pt"
 viewBox="0.00 0.00 716.88 733.00" xmlns="http://www.w3.org/2000/svg" xmlns:xlink="http://www.w3.org/1999/xlink">
<g id="graph1" class="graph" transform="scale(1 1) rotate(0) translate(4 729.002)">
<title>G</title>
<polygon fill="white" stroke="white" points="-4,5 -4,-729.002 713.881,-729.002 713.881,5 -4,5"/>
<!-- a -->
<g id="node1" class="node"><title>a</title>
<ellipse fill="#e6adad" stroke="#e6adad" cx="543.719" cy="-104.677" rx="36" ry="36"/>
<ellipse fill="none" stroke="#e6adad" cx="543.719" cy="-104.677" rx="40" ry="40"/>
</g>
<!-- b -->
<g id="node2" class="node"><title>b</title>
<ellipse fill="#e6adad" stroke="#e6adad" cx="667.881" cy="-362.501" rx="36" ry="36"/>
<ellipse fill="none" stroke="#e6adad" cx="667.881" cy="-362.501" rx="40" ry="40"/>
</g>
<!-- a&#45;&gt;b -->
<g id="edge2" class="edge"><title>a&#45;&gt;b</title>
<path fill="none" stroke="#e6adad" stroke-width="3" d="M561.114,-140.798C582.064,-184.3 617.456,-257.793 641.708,-308.152"/>
<polygon fill="#e6adad" stroke="#e6adad" points="650.403,-326.209 633.617,-312.095 645.164,-317.633 640.825,-308.624 641.726,-308.19 642.627,-307.756 646.966,-316.766 649.834,-304.285 650.403,-326.209 650.403,-326.209"/>
<text text-anchor="middle" x="609.411" y="-216.375" font-family="Times Roman,serif" font-size="14.00">1</text>
</g>
<!-- c -->
<g id="node3" class="node"><title>c</title>
<ellipse fill="#e6adad" stroke="#e6adad" cx="41" cy="-219.42" rx="36" ry="36"/>
<ellipse fill="none" stroke="#e6adad" cx="41" cy="-219.42" rx="40" ry="40"/>
</g>
<!-- a&#45;&gt;c -->
<g id="edge4" class="edge"><title>a&#45;&gt;c</title>
<path fill="none" stroke="#2a3845" d="M504.69,-113.585C410.912,-134.99 173.757,-189.119 80.0044,-210.517"/>
<text text-anchor="middle" x="294.347" y="-166.951" font-family="Times Roman,serif" font-size="14.00"> </text>
</g>
<!-- d -->
<g id="node4" class="node"><title>d</title>
<ellipse fill="#e6adad" stroke="#e6adad" cx="41" cy="-505.582" rx="36" ry="36"/>
<ellipse fill="none" stroke="#e6adad" cx="41" cy="-505.582" rx="40" ry="40"/>
</g>
<!-- a&#45;&gt;d -->
<g id="edge6" class="edge"><title>a&#45;&gt;d</title>
<path fill="none" stroke="#2a3845" d="M512.272,-129.756C421.99,-201.753 162.702,-408.528 72.4355,-480.514"/>
<text text-anchor="middle" x="287.354" y="-294.035" font-family="Times Roman,serif" font-size="14.00"> </text>
</g>
<!-- e -->
<g id="node5" class="node"><title>e</title>
<ellipse fill="#e6adad" stroke="#e6adad" cx="264.731" cy="-684.002" rx="36" ry="36"/>
<ellipse fill="none" stroke="#e6adad" cx="264.731" cy="-684.002" rx="40" ry="40"/>
</g>
<!-- a&#45;&gt;e -->
<g id="edge8" class="edge"><title>a&#45;&gt;e</title>
<path fill="none" stroke="#2a3845" d="M526.267,-140.917C476.165,-244.955 332.271,-543.755 282.176,-647.776"/>
<text text-anchor="middle" x="410.222" y="-393.247" font-family="Times Roman,serif" font-size="14.00"> </text>
</g>
<!-- f -->
<g id="node6" class="node"><title>f</title>
<ellipse fill="#e6adad" stroke="#e6adad" cx="543.719" cy="-620.325" rx="36" ry="36"/>
<ellipse fill="none" stroke="#e6adad" cx="543.719" cy="-620.325" rx="40" ry="40"/>
</g>
<!-- a&#45;&gt;f -->
<g id="edge10" class="edge"><title>a&#45;&gt;f</title>
<path fill="none" stroke="#2a3845" d="M543.719,-144.71C543.719,-240.9 543.719,-484.154 543.719,-580.317"/>
<text text-anchor="middle" x="546.719" y="-358.414" font-family="Times Roman,serif" font-size="14.00"> </text>
</g>
<!-- g -->
<g id="node7" class="node"><title>g</title>
<ellipse fill="#e6adad" stroke="#e6adad" cx="264.731" cy="-41" rx="36" ry="36"/>
<ellipse fill="none" stroke="#e6adad" cx="264.731" cy="-41" rx="40" ry="40"/>
</g>
<!-- a&#45;&gt;g -->
<g id="edge12" class="edge"><title>a&#45;&gt;g</title>
<path fill="none" stroke="#e6adad" stroke-width="3" d="M504.633,-95.7561C457.56,-85.0119 378.034,-66.8607 323.541,-54.4231"/>
<polygon fill="#e6adad" stroke="#e6adad" points="304.002,-49.9634 325.503,-45.6395 313.974,-51.2137 323.723,-53.4389 323.501,-54.4139 323.278,-55.3888 313.529,-53.1635 321.498,-63.1882 304.002,-49.9634 304.002,-49.9634"/>
<text text-anchor="middle" x="412.087" y="-80.9896" font-family="Times Roman,serif" font-size="14.00">1</text>
</g>
<!-- b&#45;&gt;c -->
<g id="edge14" class="edge"><title>b&#45;&gt;c</title>
<path fill="none" stroke="#2a3845" d="M628.666,-353.551C516.087,-327.855 192.76,-254.058 80.1994,-228.367"/>
<text text-anchor="middle" x="356.433" y="-277.859" font-family="Times Roman,serif" font-size="14.00"> </text>
</g>
<!-- b&#45;&gt;d -->
<g id="edge16" class="edge"><title>b&#45;&gt;d</title>
<path fill="none" stroke="#2a3845" d="M628.666,-371.451C516.087,-397.147 192.76,-470.944 80.1994,-496.635"/>
<text text-anchor="middle" x="356.433" y="-438.943" font-family="Times Roman,serif" font-size="14.00"> </text>
</g>
<!-- b&#45;&gt;e -->
<g id="edge18" class="edge"><title>b&#45;&gt;e</title>
<path fill="none" stroke="#e6adad" stroke-width="3" d="M636.582,-387.461C566.151,-443.627 394.875,-580.216 311.659,-646.579"/>
<polygon fill="#e6adad" stroke="#e6adad" points="296.01,-659.058 306.035,-639.552 303.205,-652.041 311.023,-645.806 311.647,-646.588 312.27,-647.37 304.452,-653.605 317.258,-653.625 296.01,-659.058 296.01,-659.058"/>
<text text-anchor="middle" x="468.12" y="-504.92" font-family="Times Roman,serif" font-size="14.00">2</text>
</g>
<!-- b&#45;&gt;f -->
<g id="edge20" class="edge"><title>b&#45;&gt;f</title>
<path fill="none" stroke="#e6adad" stroke-width="3" d="M650.486,-398.622C629.536,-442.124 594.144,-515.617 569.892,-565.976"/>
<polygon fill="#e6adad" stroke="#e6adad" points="561.197,-584.033 561.766,-562.109 564.634,-574.589 568.973,-565.58 569.874,-566.014 570.775,-566.447 566.436,-575.457 577.983,-569.919 561.197,-584.033 561.197,-584.033"/>
<text text-anchor="middle" x="602.189" y="-474.199" font-family="Times Roman,serif" font-size="14.00">2</text>
</g>
<!-- b&#45;&gt;g -->
<g id="edge22" class="edge"><title>b&#45;&gt;g</title>
<path fill="none" stroke="#2a3845" d="M636.582,-337.541C561.378,-277.568 371.194,-125.901 296.01,-65.9442"/>
<text text-anchor="middle" x="461.296" y="-204.643" font-family="Times Roman,serif" font-size="14.00"> </text>
</g>
<!-- c&#45;&gt;d -->
<g id="edge24" class="edge"><title>c&#45;&gt;d</title>
<path fill="none" stroke="#2a3845" d="M41,-259.511C41,-313.963 41,-410.751 41,-465.301"/>
<text text-anchor="middle" x="44" y="-358.306" font-family="Times Roman,serif" font-size="14.00"> </text>
</g>
<!-- c&#45;&gt;e -->
<g id="edge26" class="edge"><title>c&#45;&gt;e</title>
<path fill="none" stroke="#2a3845" d="M58.3696,-255.488C100.105,-342.152 205.649,-561.316 247.373,-647.957"/>
<text text-anchor="middle" x="146.871" y="-450.622" font-family="Times Roman,serif" font-size="14.00"> </text>
</g>
<!-- c&#45;&gt;f -->
<g id="edge28" class="edge"><title>c&#45;&gt;f</title>
<path fill="none" stroke="#2a3845" d="M72.4473,-244.498C162.729,-316.495 422.017,-523.271 512.284,-595.256"/>
<text text-anchor="middle" x="287.366" y="-422.777" font-family="Times Roman,serif" font-size="14.00"> </text>
</g>
<!-- d&#45;&gt;e -->
<g id="edge32" class="edge"><title>d&#45;&gt;e</title>
<path fill="none" stroke="#2a3845" d="M72.5807,-530.767C115.221,-564.772 190.754,-625.007 233.311,-658.945"/>
<text text-anchor="middle" x="158.946" y="-583.756" font-family="Times Roman,serif" font-size="14.00"> </text>
</g>
<!-- d&#45;&gt;f -->
<g id="edge34" class="edge"><title>d&#45;&gt;f</title>
<path fill="none" stroke="#2a3845" d="M80.0292,-514.491C173.807,-535.895 410.963,-590.024 504.715,-611.422"/>
<text text-anchor="middle" x="290.372" y="-567.857" font-family="Times Roman,serif" font-size="14.00"> </text>
</g>
<!-- e&#45;&gt;f -->
<g id="edge38" class="edge"><title>e&#45;&gt;f</title>
<path fill="none" stroke="#2a3845" d="M303.817,-675.081C356.904,-662.964 451.265,-641.427 504.448,-629.288"/>
<text text-anchor="middle" x="402.133" y="-639.085" font-family="Times Roman,serif" font-size="14.00"> </text>
</g>
<!-- e&#45;&gt;g -->
<g id="edge40" class="edge"><title>e&#45;&gt;g</title>
<path fill="none" stroke="#2a3845" d="M264.731,-643.779C264.731,-528.305 264.731,-196.663 264.731,-81.2075"/>
<text text-anchor="middle" x="261.731" y="-358.393" font-family="Times Roman,serif" font-size="14.00"> </text>
</g>
<!-- f&#45;&gt;g -->
<g id="edge42" class="edge"><title>f&#45;&gt;g</title>
<path fill="none" stroke="#2a3845" d="M526.267,-584.085C476.165,-480.047 332.271,-181.247 282.176,-77.2257"/>
<text text-anchor="middle" x="398.222" y="-329.556" font-family="Times Roman,serif" font-size="14.00"> </text>
</g>
<!-- g&#45;&gt;c -->
<g id="edge30" class="edge"><title>g&#45;&gt;c</title>
<path fill="none" stroke="#e6adad" stroke-width="3" d="M233.15,-66.1848C195.424,-96.2707 131.949,-146.891 88.3451,-181.663"/>
<polygon fill="#e6adad" stroke="#e6adad" points="72.42,-194.363 82.4453,-174.857 79.6149,-187.346 87.4332,-181.111 88.0567,-181.893 88.6802,-182.675 80.8618,-188.91 93.6681,-188.93 72.42,-194.363 72.42,-194.363"/>
<text text-anchor="middle" x="154.748" y="-111.824" font-family="Times Roman,serif" font-size="14.00">2</text>
</g>
<!-- g&#45;&gt;d -->
<g id="edge36" class="edge"><title>g&#45;&gt;d</title>
<path fill="none" stroke="#e6adad" stroke-width="3" d="M247.361,-77.0684C208.276,-158.231 113.224,-355.607 67.0428,-451.504"/>
<polygon fill="#e6adad" stroke="#e6adad" points="58.3586,-469.537 58.9276,-447.613 61.7965,-460.093 66.1353,-451.084 67.0363,-451.518 67.9373,-451.952 63.5984,-460.961 75.145,-455.423 58.3586,-469.537 58.3586,-469.537"/>
<text text-anchor="middle" x="165.202" y="-264.186" font-family="Times Roman,serif" font-size="14.00">2</text>
</g>
</g>
</svg>
