<?xml version="1.0" encoding="UTF-8" standalone="no"?>
<!DOCTYPE svg PUBLIC "-//W3C//DTD SVG 1.1//EN"
 "http://www.w3.org/Graphics/SVG/1.1/DTD/svg11.dtd">
<!-- Generated by graphviz version 2.26.3 (20100126.1600)
 -->
<!-- Title: G Pages: 1 -->
<svg width="717pt" height="733pt"
 viewBox="0.00 0.00 716.88 733.00" xmlns="http://www.w3.org/2000/svg" xmlns:xlink="http://www.w3.org/1999/xlink">
<g id="graph1" class="graph" transform="scale(1 1) rotate(0) translate(4 729.002)">
<title>G</title>
<polygon fill="white" stroke="white" points="-4,5 -4,-729.002 713.881,-729.002 713.881,5 -4,5"/>
<!-- a -->
<g id="node1" class="node"><title>a</title>
<ellipse fill="#7c93a0" stroke="#7c93a0" cx="543.719" cy="-104.677" rx="36" ry="36"/>
<ellipse fill="none" stroke="#7c93a0" cx="543.719" cy="-104.677" rx="40" ry="40"/>
</g>
<!-- b -->
<g id="node2" class="node"><title>b</title>
<ellipse fill="#7c93a0" stroke="#7c93a0" cx="667.881" cy="-362.501" rx="36" ry="36"/>
<ellipse fill="none" stroke="#7c93a0" cx="667.881" cy="-362.501" rx="40" ry="40"/>
</g>
<!-- a&#45;&gt;b -->
<g id="edge2" class="edge"><title>a&#45;&gt;b</title>
<path fill="none" stroke="#2a3845" d="M561.114,-140.798C584.74,-189.858 626.735,-277.061 650.403,-326.209"/>
<text text-anchor="middle" x="611.759" y="-226.404" font-family="Times Roman,serif" font-size="14.00"> </text>
</g>
<!-- c -->
<g id="node3" class="node"><title>c</title>
<ellipse fill="#7c93a0" stroke="#7c93a0" cx="41" cy="-219.42" rx="36" ry="36"/>
<ellipse fill="none" stroke="#7c93a0" cx="41" cy="-219.42" rx="40" ry="40"/>
</g>
<!-- a&#45;&gt;c -->
<g id="edge4" class="edge"><title>a&#45;&gt;c</title>
<path fill="none" stroke="#2a3845" d="M504.69,-113.585C410.912,-134.99 173.757,-189.119 80.0044,-210.517"/>
<text text-anchor="middle" x="294.347" y="-166.951" font-family="Times Roman,serif" font-size="14.00"> </text>
</g>
<!-- d -->
<g id="node4" class="node"><title>d</title>
<ellipse fill="#7c93a0" stroke="#7c93a0" cx="41" cy="-505.582" rx="36" ry="36"/>
<ellipse fill="none" stroke="#7c93a0" cx="41" cy="-505.582" rx="40" ry="40"/>
</g>
<!-- a&#45;&gt;d -->
<g id="edge6" class="edge"><title>a&#45;&gt;d</title>
<path fill="none" stroke="#2a3845" d="M512.272,-129.756C421.99,-201.753 162.702,-408.528 72.4355,-480.514"/>
<text text-anchor="middle" x="287.354" y="-294.035" font-family="Times Roman,serif" font-size="14.00"> </text>
</g>
<!-- e -->
<g id="node5" class="node"><title>e</title>
<ellipse fill="#7c93a0" stroke="#7c93a0" cx="264.731" cy="-684.002" rx="36" ry="36"/>
<ellipse fill="none" stroke="#7c93a0" cx="264.731" cy="-684.002" rx="40" ry="40"/>
</g>
<!-- a&#45;&gt;e -->
<g id="edge8" class="edge"><title>a&#45;&gt;e</title>
<path fill="none" stroke="#2a3845" d="M526.267,-140.917C476.165,-244.955 332.271,-543.755 282.176,-647.776"/>
<text text-anchor="middle" x="410.222" y="-393.247" font-family="Times Roman,serif" font-size="14.00"> </text>
</g>
<!-- f -->
<g id="node6" class="node"><title>f</title>
<ellipse fill="#7c93a0" stroke="#7c93a0" cx="543.719" cy="-620.325" rx="36" ry="36"/>
<ellipse fill="none" stroke="#7c93a0" cx="543.719" cy="-620.325" rx="40" ry="40"/>
</g>
<!-- a&#45;&gt;f -->
<g id="edge10" class="edge"><title>a&#45;&gt;f</title>
<path fill="none" stroke="#2a3845" d="M543.719,-144.71C543.719,-240.9 543.719,-484.154 543.719,-580.317"/>
<text text-anchor="middle" x="546.719" y="-358.414" font-family="Times Roman,serif" font-size="14.00"> </text>
</g>
<!-- g -->
<g id="node7" class="node"><title>g</title>
<ellipse fill="#7c93a0" stroke="#7c93a0" cx="264.731" cy="-41" rx="36" ry="36"/>
<ellipse fill="none" stroke="#7c93a0" cx="264.731" cy="-41" rx="40" ry="40"/>
</g>
<!-- a&#45;&gt;g -->
<g id="edge12" class="edge"><title>a&#45;&gt;g</title>
<path fill="none" stroke="#2a3845" d="M504.633,-95.7561C451.546,-83.6393 357.185,-62.102 304.002,-49.9634"/>
<text text-anchor="middle" x="402.318" y="-77.7597" font-family="Times Roman,serif" font-size="14.00"> </text>
</g>
<!-- b&#45;&gt;c -->
<g id="edge14" class="edge"><title>b&#45;&gt;c</title>
<path fill="none" stroke="#2a3845" d="M628.666,-353.551C516.087,-327.855 192.76,-254.058 80.1994,-228.367"/>
<text text-anchor="middle" x="356.433" y="-277.859" font-family="Times Roman,serif" font-size="14.00"> </text>
</g>
<!-- b&#45;&gt;d -->
<g id="edge16" class="edge"><title>b&#45;&gt;d</title>
<path fill="none" stroke="#2a3845" d="M628.666,-371.451C516.087,-397.147 192.76,-470.944 80.1994,-496.635"/>
<text text-anchor="middle" x="356.433" y="-438.943" font-family="Times Roman,serif" font-size="14.00"> </text>
</g>
<!-- b&#45;&gt;e -->
<g id="edge18" class="edge"><title>b&#45;&gt;e</title>
<path fill="none" stroke="#2a3845" d="M636.582,-387.461C561.378,-447.434 371.194,-599.101 296.01,-659.058"/>
<text text-anchor="middle" x="461.296" y="-512.16" font-family="Times Roman,serif" font-size="14.00"> </text>
</g>
<!-- b&#45;&gt;f -->
<g id="edge20" class="edge"><title>b&#45;&gt;f</title>
<path fill="none" stroke="#2a3845" d="M650.486,-398.622C626.86,-447.682 584.865,-534.884 561.197,-584.033"/>
<text text-anchor="middle" x="599.841" y="-484.227" font-family="Times Roman,serif" font-size="14.00"> </text>
</g>
<!-- b&#45;&gt;g -->
<g id="edge22" class="edge"><title>b&#45;&gt;g</title>
<path fill="none" stroke="#2a3845" d="M636.582,-337.541C561.378,-277.568 371.194,-125.901 296.01,-65.9442"/>
<text text-anchor="middle" x="461.296" y="-204.643" font-family="Times Roman,serif" font-size="14.00"> </text>
</g>
<!-- c&#45;&gt;d -->
<g id="edge24" class="edge"><title>c&#45;&gt;d</title>
<path fill="none" stroke="#2a3845" d="M41,-259.511C41,-313.963 41,-410.751 41,-465.301"/>
<text text-anchor="middle" x="44" y="-358.306" font-family="Times Roman,serif" font-size="14.00"> </text>
</g>
<!-- c&#45;&gt;e -->
<g id="edge26" class="edge"><title>c&#45;&gt;e</title>
<path fill="none" stroke="#2a3845" d="M58.3696,-255.488C100.105,-342.152 205.649,-561.316 247.373,-647.957"/>
<text text-anchor="middle" x="146.871" y="-450.622" font-family="Times Roman,serif" font-size="14.00"> </text>
</g>
<!-- c&#45;&gt;f -->
<g id="edge28" class="edge"><title>c&#45;&gt;f</title>
<path fill="none" stroke="#2a3845" d="M72.4473,-244.498C162.729,-316.495 422.017,-523.271 512.284,-595.256"/>
<text text-anchor="middle" x="287.366" y="-422.777" font-family="Times Roman,serif" font-size="14.00"> </text>
</g>
<!-- c&#45;&gt;g -->
<g id="edge30" class="edge"><title>c&#45;&gt;g</title>
<path fill="none" stroke="#2a3845" d="M72.5807,-194.235C115.221,-160.23 190.754,-99.995 233.311,-66.0566"/>
<text text-anchor="middle" x="146.946" y="-119.046" font-family="Times Roman,serif" font-size="14.00"> </text>
</g>
<!-- d&#45;&gt;e -->
<g id="edge32" class="edge"><title>d&#45;&gt;e</title>
<path fill="none" stroke="#2a3845" d="M72.5807,-530.767C115.221,-564.772 190.754,-625.007 233.311,-658.945"/>
<text text-anchor="middle" x="158.946" y="-583.756" font-family="Times Roman,serif" font-size="14.00"> </text>
</g>
<!-- d&#45;&gt;f -->
<g id="edge34" class="edge"><title>d&#45;&gt;f</title>
<path fill="none" stroke="#2a3845" d="M80.0292,-514.491C173.807,-535.895 410.963,-590.024 504.715,-611.422"/>
<text text-anchor="middle" x="290.372" y="-567.857" font-family="Times Roman,serif" font-size="14.00"> </text>
</g>
<!-- d&#45;&gt;g -->
<g id="edge36" class="edge"><title>d&#45;&gt;g</title>
<path fill="none" stroke="#2a3845" d="M58.3696,-469.514C100.105,-382.85 205.649,-163.686 247.373,-77.0455"/>
<text text-anchor="middle" x="146.871" y="-266.18" font-family="Times Roman,serif" font-size="14.00"> </text>
</g>
<!-- e&#45;&gt;f -->
<g id="edge38" class="edge"><title>e&#45;&gt;f</title>
<path fill="none" stroke="#2a3845" d="M303.817,-675.081C356.904,-662.964 451.265,-641.427 504.448,-629.288"/>
<text text-anchor="middle" x="402.133" y="-639.085" font-family="Times Roman,serif" font-size="14.00"> </text>
</g>
<!-- e&#45;&gt;g -->
<g id="edge40" class="edge"><title>e&#45;&gt;g</title>
<path fill="none" stroke="#2a3845" d="M264.731,-643.779C264.731,-528.305 264.731,-196.663 264.731,-81.2075"/>
<text text-anchor="middle" x="261.731" y="-358.393" font-family="Times Roman,serif" font-size="14.00"> </text>
</g>
<!-- f&#45;&gt;g -->
<g id="edge42" class="edge"><title>f&#45;&gt;g</title>
<path fill="none" stroke="#2a3845" d="M526.267,-584.085C476.165,-480.047 332.271,-181.247 282.176,-77.2257"/>
<text text-anchor="middle" x="398.222" y="-329.556" font-family="Times Roman,serif" font-size="14.00"> </text>
</g>
</g>
</svg>
