<?xml version="1.0" encoding="UTF-8" standalone="no"?>
<!DOCTYPE svg PUBLIC "-//W3C//DTD SVG 1.1//EN"
 "http://www.w3.org/Graphics/SVG/1.1/DTD/svg11.dtd">
<!-- Generated by graphviz version 2.26.3 (20100126.1600)
 -->
<!-- Title: G Pages: 1 -->
<svg width="838pt" height="780pt"
 viewBox="0.00 0.00 838.00 780.00" xmlns="http://www.w3.org/2000/svg" xmlns:xlink="http://www.w3.org/1999/xlink">
<g id="graph1" class="graph" transform="scale(1 1) rotate(0) translate(4 776)">
<title>G</title>
<polygon fill="white" stroke="white" points="-4,5 -4,-776 835,-776 835,5 -4,5"/>
<!-- m1 -->
<g id="node1" class="node"><title>m1</title>
<image xlink:href="man.svg" width="215px" height="289px" preserveAspectRatio="xMinYMin meet" x="37.5" y="-770.5"/>
<text text-anchor="middle" x="145" y="-616.5" font-family="Times Roman,serif" font-size="30.00">A</text>
</g>
<!-- bon -->
<g id="node3" class="node"><title>bon</title>
<polygon fill="none" stroke="white" points="0,-222.5 0,-425.5 290,-425.5 290,-222.5 0,-222.5"/>
<polygon fill="#e6dfad" stroke="#e6dfad" points="8,-226.5 8,-421.5 282,-421.5 282,-226.5 8,-226.5"/>
<polygon fill="none" stroke="white" points="8,-226.5 8,-421.5 282,-421.5 282,-226.5 8,-226.5"/>
<polygon fill="#e6adad" stroke="#e6adad" points="11,-381 11,-418 279,-418 279,-381 11,-381"/>
<polygon fill="none" stroke="white" points="11,-381 11,-418 279,-418 279,-381 11,-381"/>
<text text-anchor="start" x="14.5" y="-392.5" font-family="Times Roman,serif" font-size="30.00"> &#160;Signature de A &#160;</text>
<polygon fill="none" stroke="white" points="11,-229 11,-379 279,-379 279,-229 11,-229"/>
<text text-anchor="start" x="135" y="-354" font-family="Times Roman,serif" font-size="30.00"> &#160;</text>
<text text-anchor="start" x="92.5" y="-318" font-family="Times Roman,serif" font-size="30.00">Bon de</text>
<text text-anchor="start" x="78.5" y="-282" font-family="Times Roman,serif" font-size="30.00">123 UDC</text>
<text text-anchor="start" x="135" y="-246" font-family="Times Roman,serif" font-size="30.00"> &#160;</text>
</g>
<!-- m1&#45;&gt;bon -->
<g id="edge2" class="edge"><title>m1&#45;&gt;bon</title>
<path fill="none" stroke="#2a3845" stroke-width="2" d="M145,-480.308C145,-465.5 145,-450.624 145,-436.251"/>
<polygon fill="#2a3845" stroke="#2a3845" points="148.5,-435.882 145,-425.882 141.5,-435.882 148.5,-435.882"/>
<text text-anchor="middle" x="147.5" y="-448.9" font-family="Times Roman,serif" font-size="14.00"> </text>
</g>
<!-- m2 -->
<g id="node2" class="node"><title>m2</title>
<image xlink:href="man.svg" width="215px" height="289px" preserveAspectRatio="xMinYMin meet" x="614.5" y="-770.5"/>
<text text-anchor="middle" x="722" y="-616.5" font-family="Times Roman,serif" font-size="30.00">B</text>
</g>
<!-- a -->
<g id="node4" class="node"><title>a</title>
<ellipse fill="#7c93a0" stroke="#7c93a0" cx="548" cy="-84" rx="79.9031" ry="79.9031"/>
<ellipse fill="none" stroke="#7c93a0" cx="548" cy="-84" rx="79.9031" ry="79.9031"/>
<ellipse fill="none" stroke="#7c93a0" cx="548" cy="-84" rx="83.9031" ry="83.9031"/>
<text text-anchor="middle" x="548" y="-74.5" font-family="Times Roman,serif" font-size="30.00">Noeud</text>
</g>
<!-- bon&#45;&gt;a -->
<g id="edge3" class="edge"><title>bon&#45;&gt;a</title>
<path fill="none" stroke="#2a3845" stroke-width="2" d="M290.208,-237.524C349.803,-202.033 416.541,-162.288 467.18,-132.131"/>
<polygon fill="#2a3845" stroke="#2a3845" points="469.002,-135.12 475.802,-126.996 465.42,-129.106 469.002,-135.12"/>
<text text-anchor="middle" x="373.5" y="-190.9" font-family="Times Roman,serif" font-size="14.00"> </text>
</g>
<!-- a&#45;&gt;m2 -->
<g id="edge5" class="edge"><title>a&#45;&gt;m2</title>
<path fill="none" stroke="#2a3845" stroke-dasharray="5,2" d="M573.681,-163.994C599.512,-244.458 640.014,-370.619 672.172,-470.787"/>
<polygon fill="#2a3845" stroke="#2a3845" points="668.868,-471.946 675.257,-480.398 675.533,-469.806 668.868,-471.946"/>
<text text-anchor="middle" x="722" y="-317.3" font-family="Times Roman,serif" font-size="23.00">Notification</text>
</g>
</g>
</svg>
