<?xml version="1.0" encoding="UTF-8" standalone="no"?>
<!DOCTYPE svg PUBLIC "-//W3C//DTD SVG 1.1//EN"
 "http://www.w3.org/Graphics/SVG/1.1/DTD/svg11.dtd">
<!-- Generated by graphviz version 2.26.3 (20100126.1600)
 -->
<!-- Title: G Pages: 1 -->
<svg width="788pt" height="754pt"
 viewBox="0.00 0.00 788.00 754.00" xmlns="http://www.w3.org/2000/svg" xmlns:xlink="http://www.w3.org/1999/xlink">
<g id="graph1" class="graph" transform="scale(1 1) rotate(0) translate(4 750)">
<title>G</title>
<polygon fill="white" stroke="white" points="-4,5 -4,-750 785,-750 785,5 -4,5"/>
<!-- m1 -->
<g id="node1" class="node"><title>m1</title>
<image xlink:href="man.svg" width="215px" height="289px" preserveAspectRatio="xMinYMin meet" x="12.5" y="-744.5"/>
<text text-anchor="middle" x="120" y="-590.5" font-family="Times Roman,serif" font-size="30.00">A</text>
</g>
<!-- bon -->
<g id="node3" class="node"><title>bon</title>
<polygon fill="none" stroke="white" points="0,-196.5 0,-399.5 240,-399.5 240,-196.5 0,-196.5"/>
<polygon fill="#e6dfad" stroke="#e6dfad" points="8,-200.5 8,-395.5 232,-395.5 232,-200.5 8,-200.5"/>
<polygon fill="none" stroke="white" points="8,-200.5 8,-395.5 232,-395.5 232,-200.5 8,-200.5"/>
<polygon fill="#e6adad" stroke="#e6adad" points="11,-355 11,-392 229,-392 229,-355 11,-355"/>
<polygon fill="none" stroke="white" points="11,-355 11,-392 229,-392 229,-355 11,-355"/>
<text text-anchor="start" x="14.5" y="-366.5" font-family="Times Roman,serif" font-size="30.00"> &#160;A signature &#160;</text>
<polygon fill="none" stroke="white" points="11,-203 11,-353 229,-353 229,-203 11,-203"/>
<text text-anchor="start" x="110" y="-328" font-family="Times Roman,serif" font-size="30.00"> &#160;</text>
<text text-anchor="start" x="53.5" y="-292" font-family="Times Roman,serif" font-size="30.00">123 UDC</text>
<text text-anchor="start" x="51" y="-256" font-family="Times Roman,serif" font-size="30.00">purchase</text>
<text text-anchor="start" x="110" y="-220" font-family="Times Roman,serif" font-size="30.00"> &#160;</text>
</g>
<!-- m1&#45;&gt;bon -->
<g id="edge2" class="edge"><title>m1&#45;&gt;bon</title>
<path fill="none" stroke="#2a3845" stroke-width="2" d="M120,-454.308C120,-439.5 120,-424.624 120,-410.251"/>
<polygon fill="#2a3845" stroke="#2a3845" points="123.5,-409.882 120,-399.882 116.5,-409.882 123.5,-409.882"/>
<text text-anchor="middle" x="122.5" y="-422.9" font-family="Times Roman,serif" font-size="14.00"> </text>
</g>
<!-- m2 -->
<g id="node2" class="node"><title>m2</title>
<image xlink:href="man.svg" width="215px" height="289px" preserveAspectRatio="xMinYMin meet" x="564.5" y="-744.5"/>
<text text-anchor="middle" x="672" y="-590.5" font-family="Times Roman,serif" font-size="30.00">B</text>
</g>
<!-- a -->
<g id="node4" class="node"><title>a</title>
<ellipse fill="#7c93a0" stroke="#7c93a0" cx="504" cy="-71" rx="67.1751" ry="67.1751"/>
<ellipse fill="none" stroke="#7c93a0" cx="504" cy="-71" rx="67.1751" ry="67.1751"/>
<ellipse fill="none" stroke="#7c93a0" cx="504" cy="-71" rx="71.1751" ry="71.1751"/>
<text text-anchor="middle" x="504" y="-61.5" font-family="Times Roman,serif" font-size="30.00">Node</text>
</g>
<!-- bon&#45;&gt;a -->
<g id="edge3" class="edge"><title>bon&#45;&gt;a</title>
<path fill="none" stroke="#2a3845" stroke-width="2" d="M240.183,-226.954C303.85,-189.318 379.827,-144.404 433.859,-112.464"/>
<polygon fill="#2a3845" stroke="#2a3845" points="435.845,-115.355 442.673,-107.253 432.283,-109.329 435.845,-115.355"/>
<text text-anchor="middle" x="349.5" y="-164.9" font-family="Times Roman,serif" font-size="14.00"> </text>
</g>
<!-- a&#45;&gt;m2 -->
<g id="edge5" class="edge"><title>a&#45;&gt;m2</title>
<path fill="none" stroke="#2a3845" stroke-dasharray="5,2" d="M525.59,-138.983C549.973,-215.76 590.447,-343.206 622.668,-444.664"/>
<polygon fill="#2a3845" stroke="#2a3845" points="619.397,-445.927 625.76,-454.399 626.069,-443.808 619.397,-445.927"/>
<text text-anchor="middle" x="674" y="-291.3" font-family="Times Roman,serif" font-size="23.00">Notification</text>
</g>
</g>
</svg>
