<?xml version="1.0" encoding="UTF-8" standalone="no"?>
<!DOCTYPE svg PUBLIC "-//W3C//DTD SVG 1.1//EN"
 "http://www.w3.org/Graphics/SVG/1.1/DTD/svg11.dtd">
<!-- Generated by graphviz version 2.26.3 (20100126.1600)
 -->
<!-- Title: G Pages: 1 -->
<svg width="804pt" height="890pt"
 viewBox="0.00 0.00 804.00 890.00" xmlns="http://www.w3.org/2000/svg" xmlns:xlink="http://www.w3.org/1999/xlink">
<g id="graph1" class="graph" transform="scale(1 1) rotate(0) translate(4 886)">
<title>G</title>
<polygon fill="white" stroke="white" points="-4,5 -4,-886 801,-886 801,5 -4,5"/>
<!-- m1 -->
<g id="node1" class="node"><title>m1</title>
<image xlink:href="man.svg" width="215px" height="289px" preserveAspectRatio="xMinYMin meet" x="37.5" y="-880.5"/>
<text text-anchor="middle" x="145" y="-726.5" font-family="Times Roman,serif" font-size="30.00">A</text>
</g>
<!-- bon -->
<g id="node3" class="node"><title>bon</title>
<polygon fill="none" stroke="white" points="0,-313.5 0,-516.5 290,-516.5 290,-313.5 0,-313.5"/>
<polygon fill="#e6dfad" stroke="#e6dfad" points="8,-317.5 8,-512.5 282,-512.5 282,-317.5 8,-317.5"/>
<polygon fill="none" stroke="white" points="8,-317.5 8,-512.5 282,-512.5 282,-317.5 8,-317.5"/>
<polygon fill="#e6adad" stroke="#e6adad" points="11,-472 11,-509 279,-509 279,-472 11,-472"/>
<polygon fill="none" stroke="white" points="11,-472 11,-509 279,-509 279,-472 11,-472"/>
<text text-anchor="start" x="14.5" y="-483.5" font-family="Times Roman,serif" font-size="30.00"> &#160;Signature de A &#160;</text>
<polygon fill="none" stroke="white" points="11,-320 11,-470 279,-470 279,-320 11,-320"/>
<text text-anchor="start" x="135" y="-445" font-family="Times Roman,serif" font-size="30.00"> &#160;</text>
<text text-anchor="start" x="92.5" y="-409" font-family="Times Roman,serif" font-size="30.00">Bon de</text>
<text text-anchor="start" x="78.5" y="-373" font-family="Times Roman,serif" font-size="30.00">123 UDC</text>
<text text-anchor="start" x="135" y="-337" font-family="Times Roman,serif" font-size="30.00"> &#160;</text>
</g>
<!-- m1&#45;&gt;bon -->
<g id="edge2" class="edge"><title>m1&#45;&gt;bon</title>
<path fill="none" stroke="#2a3845" stroke-width="2" d="M145,-590.059C145,-568.807 145,-547.211 145,-526.779"/>
<polygon fill="#2a3845" stroke="#2a3845" points="148.5,-526.53 145,-516.53 141.5,-526.53 148.5,-526.53"/>
<text text-anchor="middle" x="147.5" y="-558.9" font-family="Times Roman,serif" font-size="14.00"> </text>
</g>
<!-- m2 -->
<g id="node2" class="node"><title>m2</title>
<image xlink:href="man.svg" width="215px" height="289px" preserveAspectRatio="xMinYMin meet" x="487.5" y="-880.5"/>
<text text-anchor="middle" x="595" y="-726.5" font-family="Times Roman,serif" font-size="30.00">B</text>
</g>
<!-- bon2 -->
<g id="node4" class="node"><title>bon2</title>
<polygon fill="none" stroke="white" points="506,-294.5 506,-535.5 796,-535.5 796,-294.5 506,-294.5"/>
<polygon fill="#e6dfad" stroke="#e6dfad" points="514,-298.5 514,-531.5 788,-531.5 788,-298.5 514,-298.5"/>
<polygon fill="none" stroke="white" points="514,-298.5 514,-531.5 788,-531.5 788,-298.5 514,-298.5"/>
<polygon fill="#e6adad" stroke="#e6adad" points="517,-491 517,-528 785,-528 785,-491 517,-491"/>
<polygon fill="none" stroke="white" points="517,-491 517,-528 785,-528 785,-491 517,-491"/>
<text text-anchor="start" x="520.5" y="-502.5" font-family="Times Roman,serif" font-size="30.00"> &#160;Signature de A &#160;</text>
<polygon fill="none" stroke="white" points="517,-339 517,-489 785,-489 785,-339 517,-339"/>
<text text-anchor="start" x="641" y="-464" font-family="Times Roman,serif" font-size="30.00"> &#160;</text>
<text text-anchor="start" x="598.5" y="-428" font-family="Times Roman,serif" font-size="30.00">Bon de</text>
<text text-anchor="start" x="584.5" y="-392" font-family="Times Roman,serif" font-size="30.00">123 UDC</text>
<text text-anchor="start" x="641" y="-356" font-family="Times Roman,serif" font-size="30.00"> &#160;</text>
<polygon fill="#e6adad" stroke="#e6adad" points="517,-301 517,-337 785,-337 785,-301 517,-301"/>
<polygon fill="none" stroke="white" points="517,-301 517,-337 785,-337 785,-301 517,-301"/>
<text text-anchor="start" x="520.5" y="-312" font-family="Times Roman,serif" font-size="30.00"> &#160;Signature de B &#160;</text>
</g>
<!-- m2&#45;&gt;bon2 -->
<g id="edge5" class="edge"><title>m2&#45;&gt;bon2</title>
<path fill="none" stroke="#2a3845" d="M620.46,-590.059C623.042,-575.257 625.654,-560.288 628.205,-545.662"/>
<polygon fill="#2a3845" stroke="#2a3845" points="631.691,-546.05 629.961,-535.597 624.795,-544.847 631.691,-546.05"/>
</g>
<!-- bon&#45;&gt;m2 -->
<g id="edge3" class="edge"><title>bon&#45;&gt;m2</title>
<path fill="none" stroke="#2a3845" stroke-width="2" d="M287.488,-516.641C349.143,-560.622 420.394,-611.448 478.777,-653.094"/>
<polygon fill="#2a3845" stroke="#2a3845" points="476.754,-655.95 486.928,-658.908 480.819,-650.252 476.754,-655.95"/>
<text text-anchor="middle" x="358.5" y="-558.9" font-family="Times Roman,serif" font-size="14.00"> </text>
</g>
<!-- a -->
<g id="node5" class="node"><title>a</title>
<ellipse fill="#7c93a0" stroke="#7c93a0" cx="651" cy="-84" rx="79.9031" ry="79.9031"/>
<ellipse fill="none" stroke="#7c93a0" cx="651" cy="-84" rx="79.9031" ry="79.9031"/>
<ellipse fill="none" stroke="#7c93a0" cx="651" cy="-84" rx="83.9031" ry="83.9031"/>
<text text-anchor="middle" x="651" y="-74.5" font-family="Times Roman,serif" font-size="30.00">Noeud</text>
</g>
<!-- bon2&#45;&gt;a -->
<g id="edge7" class="edge"><title>bon2&#45;&gt;a</title>
<path fill="none" stroke="#2a3845" stroke-width="2" d="M651,-294.096C651,-255.862 651,-214.195 651,-178.125"/>
<polygon fill="#2a3845" stroke="#2a3845" points="654.5,-178.107 651,-168.107 647.5,-178.107 654.5,-178.107"/>
<text text-anchor="middle" x="717.5" y="-253.5" font-family="Times Roman,serif" font-size="25.00">Validation</text>
<text text-anchor="middle" x="717.5" y="-223.5" font-family="Times Roman,serif" font-size="25.00">immédiate</text>
<text text-anchor="middle" x="717.5" y="-193.5" font-family="Times Roman,serif" font-size="25.00">ou différée</text>
</g>
</g>
</svg>
