<?xml version="1.0" encoding="UTF-8" standalone="no"?>
<!DOCTYPE svg PUBLIC "-//W3C//DTD SVG 1.1//EN"
 "http://www.w3.org/Graphics/SVG/1.1/DTD/svg11.dtd">
<!-- Generated by graphviz version 2.26.3 (20100126.1600)
 -->
<!-- Title: G Pages: 1 -->
<svg width="717pt" height="864pt"
 viewBox="0.00 0.00 717.00 864.00" xmlns="http://www.w3.org/2000/svg" xmlns:xlink="http://www.w3.org/1999/xlink">
<g id="graph1" class="graph" transform="scale(1 1) rotate(0) translate(4 860)">
<title>G</title>
<polygon fill="white" stroke="white" points="-4,5 -4,-860 714,-860 714,5 -4,5"/>
<!-- m1 -->
<g id="node1" class="node"><title>m1</title>
<image xlink:href="man.svg" width="215px" height="289px" preserveAspectRatio="xMinYMin meet" x="12.5" y="-854.5"/>
<text text-anchor="middle" x="120" y="-700.5" font-family="Times Roman,serif" font-size="30.00">A</text>
</g>
<!-- bon -->
<g id="node3" class="node"><title>bon</title>
<polygon fill="none" stroke="white" points="0,-287.5 0,-490.5 240,-490.5 240,-287.5 0,-287.5"/>
<polygon fill="#e6dfad" stroke="#e6dfad" points="8,-291.5 8,-486.5 232,-486.5 232,-291.5 8,-291.5"/>
<polygon fill="none" stroke="white" points="8,-291.5 8,-486.5 232,-486.5 232,-291.5 8,-291.5"/>
<polygon fill="#e6adad" stroke="#e6adad" points="11,-446 11,-483 229,-483 229,-446 11,-446"/>
<polygon fill="none" stroke="white" points="11,-446 11,-483 229,-483 229,-446 11,-446"/>
<text text-anchor="start" x="14.5" y="-457.5" font-family="Times Roman,serif" font-size="30.00"> &#160;A signature &#160;</text>
<polygon fill="none" stroke="white" points="11,-294 11,-444 229,-444 229,-294 11,-294"/>
<text text-anchor="start" x="110" y="-419" font-family="Times Roman,serif" font-size="30.00"> &#160;</text>
<text text-anchor="start" x="53.5" y="-383" font-family="Times Roman,serif" font-size="30.00">123 UDC</text>
<text text-anchor="start" x="51" y="-347" font-family="Times Roman,serif" font-size="30.00">purchase</text>
<text text-anchor="start" x="110" y="-311" font-family="Times Roman,serif" font-size="30.00"> &#160;</text>
</g>
<!-- m1&#45;&gt;bon -->
<g id="edge2" class="edge"><title>m1&#45;&gt;bon</title>
<path fill="none" stroke="#2a3845" stroke-width="2" d="M120,-564.059C120,-542.807 120,-521.211 120,-500.779"/>
<polygon fill="#2a3845" stroke="#2a3845" points="123.5,-500.53 120,-490.53 116.5,-500.53 123.5,-500.53"/>
<text text-anchor="middle" x="122.5" y="-532.9" font-family="Times Roman,serif" font-size="14.00"> </text>
</g>
<!-- m2 -->
<g id="node2" class="node"><title>m2</title>
<image xlink:href="man.svg" width="215px" height="289px" preserveAspectRatio="xMinYMin meet" x="450.5" y="-854.5"/>
<text text-anchor="middle" x="558" y="-700.5" font-family="Times Roman,serif" font-size="30.00">B</text>
</g>
<!-- bon2 -->
<g id="node4" class="node"><title>bon2</title>
<polygon fill="none" stroke="white" points="456,-268.5 456,-509.5 696,-509.5 696,-268.5 456,-268.5"/>
<polygon fill="#e6dfad" stroke="#e6dfad" points="464,-272.5 464,-505.5 688,-505.5 688,-272.5 464,-272.5"/>
<polygon fill="none" stroke="white" points="464,-272.5 464,-505.5 688,-505.5 688,-272.5 464,-272.5"/>
<polygon fill="#e6adad" stroke="#e6adad" points="467,-465 467,-502 685,-502 685,-465 467,-465"/>
<polygon fill="none" stroke="white" points="467,-465 467,-502 685,-502 685,-465 467,-465"/>
<text text-anchor="start" x="470.5" y="-476.5" font-family="Times Roman,serif" font-size="30.00"> &#160;A signature &#160;</text>
<polygon fill="none" stroke="white" points="467,-313 467,-463 685,-463 685,-313 467,-313"/>
<text text-anchor="start" x="566" y="-438" font-family="Times Roman,serif" font-size="30.00"> &#160;</text>
<text text-anchor="start" x="509.5" y="-402" font-family="Times Roman,serif" font-size="30.00">123 UDC</text>
<text text-anchor="start" x="507" y="-366" font-family="Times Roman,serif" font-size="30.00">purchase</text>
<text text-anchor="start" x="566" y="-330" font-family="Times Roman,serif" font-size="30.00"> &#160;</text>
<polygon fill="#e6adad" stroke="#e6adad" points="467,-275 467,-311 685,-311 685,-275 467,-275"/>
<polygon fill="none" stroke="white" points="467,-275 467,-311 685,-311 685,-275 467,-275"/>
<text text-anchor="start" x="470.5" y="-286" font-family="Times Roman,serif" font-size="30.00"> &#160;B signature &#160;</text>
</g>
<!-- m2&#45;&gt;bon2 -->
<g id="edge5" class="edge"><title>m2&#45;&gt;bon2</title>
<path fill="none" stroke="#2a3845" d="M566.184,-564.059C567.014,-549.257 567.853,-534.288 568.673,-519.662"/>
<polygon fill="#2a3845" stroke="#2a3845" points="572.172,-519.777 569.238,-509.597 565.183,-519.385 572.172,-519.777"/>
</g>
<!-- bon&#45;&gt;m2 -->
<g id="edge3" class="edge"><title>bon&#45;&gt;m2</title>
<path fill="none" stroke="#2a3845" stroke-width="2" d="M240.124,-477.036C302.843,-523.001 379.256,-579.002 441.443,-624.578"/>
<polygon fill="#2a3845" stroke="#2a3845" points="439.596,-627.563 449.73,-630.652 443.733,-621.917 439.596,-627.563"/>
<text text-anchor="middle" x="327.5" y="-532.9" font-family="Times Roman,serif" font-size="14.00"> </text>
</g>
<!-- a -->
<g id="node5" class="node"><title>a</title>
<ellipse fill="#7c93a0" stroke="#7c93a0" cx="576" cy="-71" rx="67.1751" ry="67.1751"/>
<ellipse fill="none" stroke="#7c93a0" cx="576" cy="-71" rx="67.1751" ry="67.1751"/>
<ellipse fill="none" stroke="#7c93a0" cx="576" cy="-71" rx="71.1751" ry="71.1751"/>
<text text-anchor="middle" x="576" y="-61.5" font-family="Times Roman,serif" font-size="30.00">Node</text>
</g>
<!-- bon2&#45;&gt;a -->
<g id="edge7" class="edge"><title>bon2&#45;&gt;a</title>
<path fill="none" stroke="#2a3845" stroke-width="2" d="M576,-268.324C576,-229.625 576,-187.704 576,-152.495"/>
<polygon fill="#2a3845" stroke="#2a3845" points="579.5,-152.274 576,-142.274 572.5,-152.274 579.5,-152.274"/>
<text text-anchor="middle" x="642.5" y="-227.5" font-family="Times Roman,serif" font-size="25.00">Immediate</text>
<text text-anchor="middle" x="642.5" y="-197.5" font-family="Times Roman,serif" font-size="25.00">or delayed</text>
<text text-anchor="middle" x="642.5" y="-167.5" font-family="Times Roman,serif" font-size="25.00">validation</text>
</g>
</g>
</svg>
