<?xml version="1.0" encoding="UTF-8" standalone="no"?>
<!DOCTYPE svg PUBLIC "-//W3C//DTD SVG 1.1//EN"
 "http://www.w3.org/Graphics/SVG/1.1/DTD/svg11.dtd">
<!-- Generated by graphviz version 2.26.3 (20100126.1600)
 -->
<!-- Title: G Pages: 1 -->
<svg width="1699pt" height="1210pt"
 viewBox="0.00 0.00 1699.00 1210.00" xmlns="http://www.w3.org/2000/svg" xmlns:xlink="http://www.w3.org/1999/xlink">
<g id="graph1" class="graph" transform="scale(1 1) rotate(0) translate(4 1206)">
<title>G</title>
<polygon fill="white" stroke="white" points="-4,5 -4,-1206 1696,-1206 1696,5 -4,5"/>
<g id="graph2" class="cluster"><title>cluster_1</title>
<polygon fill="#ade6bf" stroke="#ade6bf" points="796,-8 796,-676 1442,-676 1442,-8 796,-8"/>
<text text-anchor="middle" x="850.5" y="-640.5" font-family="Times Roman,serif" font-size="35.00">Node</text>
</g>
<g id="graph3" class="cluster"><title>cluster_11</title>
<polygon fill="#ade6bf" stroke="#ade6bf" points="1419,-709 1419,-885 1683,-885 1683,-709 1419,-709"/>
</g>
<g id="graph4" class="cluster"><title>cluster_2</title>
<polygon fill="#b1ade6" stroke="#b1ade6" points="1284,-968 1284,-1194 1680,-1194 1680,-968 1284,-968"/>
<text text-anchor="middle" x="1425" y="-1158.5" font-family="Times Roman,serif" font-size="35.00">Web User Tools</text>
</g>
<g id="graph5" class="cluster"><title>cluster_3</title>
<polygon fill="#adc4e6" stroke="#adc4e6" points="439,-684 439,-960 1411,-960 1411,-684 439,-684"/>
<text text-anchor="middle" x="587.5" y="-924.5" font-family="Times Roman,serif" font-size="35.00">Local User Tools</text>
</g>
<g id="graph6" class="cluster"><title>cluster_4</title>
<polygon fill="#7c93a0" stroke="#7c93a0" points="8,-709 8,-935 431,-935 431,-709 8,-709"/>
<text text-anchor="middle" x="219.5" y="-899.5" font-family="Times Roman,serif" font-size="35.00">Smartphone User Tools</text>
</g>
<!-- n1 -->
<g id="node1" class="node"><title>n1</title>
<a xlink:href="http://wiki.openudc.org/web_payement" xlink:title="Coin management\nC\n80%">
<ellipse fill="white" stroke="white" cx="1110" cy="-292" rx="207.889" ry="79.9031"/>
<text text-anchor="middle" x="1110" y="-317.5" font-family="Times Roman,serif" font-size="30.00">Coin management</text>
<text text-anchor="middle" x="1110" y="-282.5" font-family="Times Roman,serif" font-size="30.00">C</text>
<text text-anchor="middle" x="1110" y="-247.5" font-family="Times Roman,serif" font-size="30.00">80%</text>
</a>
</g>
<!-- n2 -->
<g id="node2" class="node"><title>n2</title>
<a xlink:href="http://wiki.openudc.org/web_payement" xlink:title="Inter&#45;node communication\nC\n5%">
<ellipse fill="white" stroke="white" cx="1110" cy="-96" rx="290.121" ry="79.9031"/>
<text text-anchor="middle" x="1110" y="-121.5" font-family="Times Roman,serif" font-size="30.00">Inter&#45;node communication</text>
<text text-anchor="middle" x="1110" y="-86.5" font-family="Times Roman,serif" font-size="30.00">C</text>
<text text-anchor="middle" x="1110" y="-51.5" font-family="Times Roman,serif" font-size="30.00">5%</text>
</a>
</g>
<!-- n1&#45;&gt;n2 -->
<g id="edge3" class="edge"><title>n1&#45;&gt;n2</title>
<path fill="none" stroke="black" d="M1103.35,-211.997C1103.25,-203.476 1103.23,-194.766 1103.27,-186.139"/>
<polygon fill="black" stroke="black" points="1106.77,-186.093 1103.35,-176.065 1099.77,-186.036 1106.77,-186.093"/>
</g>
<!-- n2&#45;&gt;n1 -->
<g id="edge5" class="edge"><title>n2&#45;&gt;n1</title>
<path fill="none" stroke="black" d="M1116.65,-176.065C1116.75,-184.587 1116.77,-193.297 1116.73,-201.923"/>
<polygon fill="black" stroke="black" points="1113.23,-201.968 1116.65,-211.997 1120.23,-202.026 1113.23,-201.968"/>
</g>
<!-- n2&#45;&gt;n2 -->
<g id="edge25" class="edge"><title>n2&#45;&gt;n2</title>
<path fill="none" stroke="black" d="M1381.07,-124.472C1403.83,-118.363 1418,-108.872 1418,-96 1418,-85.1392 1407.91,-76.6857 1391.09,-70.6394"/>
<polygon fill="black" stroke="black" points="1391.66,-67.152 1381.07,-67.5281 1389.59,-73.837 1391.66,-67.152"/>
</g>
<!-- n3 -->
<g id="node3" class="node"><title>n3</title>
<a xlink:href="http://wiki.openudc.org/web_payement" xlink:title="Transaction API\nC\n30%">
<ellipse fill="white" stroke="white" cx="977" cy="-513" rx="173.241" ry="79.9031"/>
<text text-anchor="middle" x="977" y="-538.5" font-family="Times Roman,serif" font-size="30.00">Transaction API</text>
<text text-anchor="middle" x="977" y="-503.5" font-family="Times Roman,serif" font-size="30.00">C</text>
<text text-anchor="middle" x="977" y="-468.5" font-family="Times Roman,serif" font-size="30.00">30%</text>
</a>
</g>
<!-- n3&#45;&gt;n1 -->
<g id="edge7" class="edge"><title>n3&#45;&gt;n1</title>
<path fill="none" stroke="black" d="M1023.52,-435.705C1034.63,-417.247 1046.55,-397.426 1057.89,-378.581"/>
<polygon fill="black" stroke="black" points="1060.9,-380.372 1063.06,-369.999 1054.9,-376.762 1060.9,-380.372"/>
</g>
<!-- n4 -->
<g id="node4" class="node"><title>n4</title>
<a xlink:href="http://wiki.openudc.org/web_payement" xlink:title="Tools API\nKey signing\nC\n0%">
<ellipse fill="white" stroke="white" cx="1301" cy="-513" rx="132.936" ry="104.652"/>
<text text-anchor="middle" x="1301" y="-556" font-family="Times Roman,serif" font-size="30.00">Tools API</text>
<text text-anchor="middle" x="1301" y="-521" font-family="Times Roman,serif" font-size="30.00">Key signing</text>
<text text-anchor="middle" x="1301" y="-486" font-family="Times Roman,serif" font-size="30.00">C</text>
<text text-anchor="middle" x="1301" y="-451" font-family="Times Roman,serif" font-size="30.00">0%</text>
</a>
</g>
<!-- n4&#45;&gt;n1 -->
<g id="edge9" class="edge"><title>n4&#45;&gt;n1</title>
<path fill="none" stroke="black" d="M1226.06,-426.289C1211.78,-409.766 1196.86,-392.497 1182.65,-376.058"/>
<polygon fill="black" stroke="black" points="1184.92,-373.339 1175.74,-368.062 1179.63,-377.916 1184.92,-373.339"/>
</g>
<!-- u1 -->
<g id="node5" class="node"><title>u1</title>
<a xlink:href="http://wiki.openudc.org/web_payement" xlink:title="Payement\nND\n0%">
<ellipse fill="white" stroke="white" cx="305" cy="-797" rx="118.087" ry="79.9031"/>
<text text-anchor="middle" x="305" y="-822.5" font-family="Times Roman,serif" font-size="30.00">Payement</text>
<text text-anchor="middle" x="305" y="-787.5" font-family="Times Roman,serif" font-size="30.00">ND</text>
<text text-anchor="middle" x="305" y="-752.5" font-family="Times Roman,serif" font-size="30.00">0%</text>
</a>
</g>
<!-- u1&#45;&gt;n3 -->
<g id="edge23" class="edge"><title>u1&#45;&gt;n3</title>
<path fill="none" stroke="black" d="M371.161,-730.316C390.529,-713.444 412.563,-696.568 435,-684 551.988,-618.472 697.508,-574.327 808.299,-547.328"/>
<polygon fill="black" stroke="black" points="809.334,-550.679 818.233,-544.931 807.691,-543.874 809.334,-550.679"/>
</g>
<!-- wu1 -->
<g id="node6" class="node"><title>wu1</title>
<a xlink:href="http://wiki.openudc.org/web_payement" xlink:title="Payement\nND\n0%">
<ellipse fill="white" stroke="white" cx="1554" cy="-1056" rx="118.087" ry="79.9031"/>
<text text-anchor="middle" x="1554" y="-1081.5" font-family="Times Roman,serif" font-size="30.00">Payement</text>
<text text-anchor="middle" x="1554" y="-1046.5" font-family="Times Roman,serif" font-size="30.00">ND</text>
<text text-anchor="middle" x="1554" y="-1011.5" font-family="Times Roman,serif" font-size="30.00">0%</text>
</a>
</g>
<!-- cgi -->
<g id="node11" class="node"><title>cgi</title>
<a xlink:href="http://wiki.openudc.org/web_payement" xlink:title="Fast CGI\nND/Python\n0%">
<ellipse fill="white" stroke="white" cx="1551" cy="-797" rx="123.951" ry="79.9031"/>
<text text-anchor="middle" x="1551" y="-822.5" font-family="Times Roman,serif" font-size="30.00">Fast CGI</text>
<text text-anchor="middle" x="1551" y="-787.5" font-family="Times Roman,serif" font-size="30.00">ND/Python</text>
<text text-anchor="middle" x="1551" y="-752.5" font-family="Times Roman,serif" font-size="30.00">0%</text>
</a>
</g>
<!-- wu1&#45;&gt;cgi -->
<g id="edge17" class="edge"><title>wu1&#45;&gt;cgi</title>
<path fill="none" stroke="black" d="M1553.07,-975.825C1552.75,-947.783 1552.38,-916.115 1552.05,-887.304"/>
<polygon fill="black" stroke="black" points="1555.55,-887.201 1551.93,-877.243 1548.55,-887.282 1555.55,-887.201"/>
</g>
<!-- wu2 -->
<g id="node7" class="node"><title>wu2</title>
<a xlink:href="http://wiki.openudc.org/web_payement" xlink:title="Tools\nND\n0%">
<ellipse fill="white" stroke="white" cx="1355" cy="-1056" rx="62.9325" ry="79.9031"/>
<text text-anchor="middle" x="1355" y="-1081.5" font-family="Times Roman,serif" font-size="30.00">Tools</text>
<text text-anchor="middle" x="1355" y="-1046.5" font-family="Times Roman,serif" font-size="30.00">ND</text>
<text text-anchor="middle" x="1355" y="-1011.5" font-family="Times Roman,serif" font-size="30.00">0%</text>
</a>
</g>
<!-- wu2&#45;&gt;cgi -->
<g id="edge15" class="edge"><title>wu2&#45;&gt;cgi</title>
<path fill="none" stroke="black" d="M1398.74,-998.198C1425.71,-962.566 1460.67,-916.359 1490.3,-877.214"/>
<polygon fill="black" stroke="black" points="1493.29,-879.06 1496.53,-868.974 1487.71,-874.836 1493.29,-879.06"/>
</g>
<!-- lu1 -->
<g id="node8" class="node"><title>lu1</title>
<a xlink:href="http://wiki.openudc.org/web_payement" xlink:title="Payement gui\nND\n0%">
<ellipse fill="white" stroke="white" cx="604" cy="-797" rx="157.184" ry="79.9031"/>
<text text-anchor="middle" x="604" y="-822.5" font-family="Times Roman,serif" font-size="30.00">Payement gui</text>
<text text-anchor="middle" x="604" y="-787.5" font-family="Times Roman,serif" font-size="30.00">ND</text>
<text text-anchor="middle" x="604" y="-752.5" font-family="Times Roman,serif" font-size="30.00">0%</text>
</a>
</g>
<!-- lu1&#45;&gt;n3 -->
<g id="edge29" class="edge"><title>lu1&#45;&gt;n3</title>
<path fill="none" stroke="black" d="M691.452,-730.415C747.698,-687.589 820.877,-631.871 879.071,-587.562"/>
<polygon fill="black" stroke="black" points="881.344,-590.231 887.18,-581.389 877.103,-584.662 881.344,-590.231"/>
</g>
<!-- lu2 -->
<g id="node9" class="node"><title>lu2</title>
<a xlink:href="http://wiki.openudc.org/web_payement" xlink:title="Tools gui\nND\n0%">
<ellipse fill="white" stroke="white" cx="1301" cy="-797" rx="102.03" ry="79.9031"/>
<text text-anchor="middle" x="1301" y="-822.5" font-family="Times Roman,serif" font-size="30.00">Tools gui</text>
<text text-anchor="middle" x="1301" y="-787.5" font-family="Times Roman,serif" font-size="30.00">ND</text>
<text text-anchor="middle" x="1301" y="-752.5" font-family="Times Roman,serif" font-size="30.00">0%</text>
</a>
</g>
<!-- lu2&#45;&gt;n4 -->
<g id="edge27" class="edge"><title>lu2&#45;&gt;n4</title>
<path fill="none" stroke="black" d="M1301,-716.756C1301,-689.124 1301,-657.618 1301,-627.778"/>
<polygon fill="black" stroke="black" points="1304.5,-627.73 1301,-617.73 1297.5,-627.731 1304.5,-627.73"/>
</g>
<!-- lu3 -->
<g id="node10" class="node"><title>lu3</title>
<a xlink:href="http://wiki.openudc.org/web_payement" xlink:title="Comand line\npayement &amp; tools\nBash/C\n40%">
<ellipse fill="white" stroke="white" cx="980" cy="-797" rx="200.818" ry="104.652"/>
<text text-anchor="middle" x="980" y="-840" font-family="Times Roman,serif" font-size="30.00">Comand line</text>
<text text-anchor="middle" x="980" y="-805" font-family="Times Roman,serif" font-size="30.00">payement &amp; tools</text>
<text text-anchor="middle" x="980" y="-770" font-family="Times Roman,serif" font-size="30.00">Bash/C</text>
<text text-anchor="middle" x="980" y="-735" font-family="Times Roman,serif" font-size="30.00">40%</text>
</a>
</g>
<!-- lu3&#45;&gt;n3 -->
<g id="edge33" class="edge"><title>lu3&#45;&gt;n3</title>
<path fill="none" stroke="black" d="M978.896,-692.459C978.588,-663.301 978.256,-631.873 977.957,-603.591"/>
<polygon fill="black" stroke="black" points="981.454,-603.286 977.848,-593.323 974.454,-603.36 981.454,-603.286"/>
</g>
<!-- lu3&#45;&gt;n4 -->
<g id="edge31" class="edge"><title>lu3&#45;&gt;n4</title>
<path fill="none" stroke="black" d="M1108.24,-716.322C1125.85,-703.538 1143.27,-689.918 1159,-676 1181.6,-656.004 1204.02,-632.488 1224.13,-609.636"/>
<polygon fill="black" stroke="black" points="1226.93,-611.755 1230.86,-601.917 1221.65,-607.154 1226.93,-611.755"/>
</g>
<!-- cgi&#45;&gt;n3 -->
<g id="edge21" class="edge"><title>cgi&#45;&gt;n3</title>
<path fill="none" stroke="black" d="M1486.2,-728.43C1465.31,-710.664 1440.83,-693.791 1415,-684 1361.78,-663.829 1211.84,-697.154 1159,-676 1116.16,-658.851 1076.87,-626.845 1045.84,-595.705"/>
<polygon fill="black" stroke="black" points="1048.04,-592.942 1038.54,-588.24 1043.03,-597.836 1048.04,-592.942"/>
</g>
<!-- cgi&#45;&gt;n4 -->
<g id="edge19" class="edge"><title>cgi&#45;&gt;n4</title>
<path fill="none" stroke="black" d="M1489.52,-727.162C1457.6,-690.901 1418.16,-646.091 1383.61,-606.846"/>
<polygon fill="black" stroke="black" points="1386.01,-604.269 1376.77,-599.075 1380.75,-608.894 1386.01,-604.269"/>
</g>
</g>
</svg>
