<?xml version="1.0" encoding="UTF-8" standalone="no"?>
<!DOCTYPE svg PUBLIC "-//W3C//DTD SVG 1.1//EN"
 "http://www.w3.org/Graphics/SVG/1.1/DTD/svg11.dtd">
<!-- Generated by graphviz version 2.26.3 (20100126.1600)
 -->
<!-- Title: G Pages: 1 -->
<svg width="1261pt" height="410pt"
 viewBox="0.00 0.00 1261.00 410.00" xmlns="http://www.w3.org/2000/svg" xmlns:xlink="http://www.w3.org/1999/xlink">
<g id="graph1" class="graph" transform="scale(1 1) rotate(0) translate(4 406)">
<title>G</title>
<polygon fill="white" stroke="white" points="-4,5 -4,-406 1258,-406 1258,5 -4,5"/>
<g id="graph2" class="cluster"><title>cluster_1</title>
<polygon fill="#ade6bf" stroke="#ade6bf" points="8,-8 8,-332 610,-332 610,-8 8,-8"/>
<text text-anchor="middle" x="188.5" y="-296.5" font-family="Times Roman,serif" font-size="35.00">Appel téléphonique</text>
</g>
<!-- n1 -->
<g id="node1" class="node"><title>n1</title>
<ellipse fill="white" stroke="white" cx="309" cy="-145" rx="207.889" ry="30.4056"/>
<text text-anchor="middle" x="309" y="-135.5" font-family="Times Roman,serif" font-size="30.00">Coin management</text>
</g>
<!-- n2 -->
<g id="node2" class="node"><title>n2</title>
<ellipse fill="white" stroke="white" cx="309" cy="-47" rx="292.949" ry="30.4056"/>
<text text-anchor="middle" x="309" y="-37.5" font-family="Times Roman,serif" font-size="30.00">Inter&#45;node Communication</text>
</g>
<!-- n1&#45;&gt;n2 -->
<g id="edge3" class="edge"><title>n1&#45;&gt;n2</title>
<path fill="none" stroke="black" d="M302.685,-114.261C302.267,-105.869 302.15,-96.6434 302.335,-87.7861"/>
<polygon fill="black" stroke="black" points="305.838,-87.7462 302.691,-77.6299 298.843,-87.5012 305.838,-87.7462"/>
</g>
<!-- n2&#45;&gt;n1 -->
<g id="edge5" class="edge"><title>n2&#45;&gt;n1</title>
<path fill="none" stroke="black" d="M315.309,-77.6299C315.73,-86.0145 315.85,-95.2383 315.667,-104.099"/>
<polygon fill="black" stroke="black" points="312.164,-104.146 315.315,-114.261 319.16,-104.388 312.164,-104.146"/>
</g>
<!-- n3 -->
<g id="node3" class="node"><title>n3</title>
<ellipse fill="white" stroke="white" cx="191" cy="-243" rx="173.241" ry="30.4056"/>
<text text-anchor="middle" x="191" y="-233.5" font-family="Times Roman,serif" font-size="30.00">Transaction API</text>
</g>
<!-- n3&#45;&gt;n1 -->
<g id="edge7" class="edge"><title>n3&#45;&gt;n1</title>
<path fill="none" stroke="black" d="M227.045,-213.064C238.943,-203.183 252.317,-192.076 264.755,-181.746"/>
<polygon fill="black" stroke="black" points="267.312,-184.172 272.769,-175.09 262.84,-178.787 267.312,-184.172"/>
</g>
<!-- n4 -->
<g id="node4" class="node"><title>n4</title>
<ellipse fill="white" stroke="white" cx="491" cy="-243" rx="103.238" ry="30.4056"/>
<text text-anchor="middle" x="491" y="-233.5" font-family="Times Roman,serif" font-size="30.00">Tools API</text>
</g>
<!-- n4&#45;&gt;n1 -->
<g id="edge9" class="edge"><title>n4&#45;&gt;n1</title>
<path fill="none" stroke="black" d="M441.268,-216.221C420.083,-204.814 395.113,-191.369 372.608,-179.251"/>
<polygon fill="black" stroke="black" points="374.255,-176.162 363.791,-174.503 370.936,-182.326 374.255,-176.162"/>
</g>
<!-- u1 -->
<g id="node5" class="node"><title>u1</title>
<ellipse fill="white" stroke="white" cx="939" cy="-371" rx="314.162" ry="30.4056"/>
<text text-anchor="middle" x="939" y="-361.5" font-family="Times Roman,serif" font-size="30.00">Smarthpone payement tools</text>
</g>
<!-- u2 -->
<g id="node6" class="node"><title>u2</title>
<ellipse fill="white" stroke="white" cx="185" cy="-371" rx="171.827" ry="30.4056"/>
<text text-anchor="middle" x="185" y="-361.5" font-family="Times Roman,serif" font-size="30.00">Web Payement</text>
</g>
<!-- u2&#45;&gt;n3 -->
<g id="edge13" class="edge"><title>u2&#45;&gt;n3</title>
<path fill="none" stroke="black" d="M186.437,-340.341C187.229,-323.446 188.223,-302.249 189.08,-283.953"/>
<polygon fill="black" stroke="black" points="192.582,-284.006 189.554,-273.853 185.589,-283.678 192.582,-284.006"/>
</g>
<!-- u3 -->
<g id="node7" class="node"><title>u3</title>
<ellipse fill="white" stroke="white" cx="491" cy="-371" rx="116.172" ry="30.4056"/>
<text text-anchor="middle" x="491" y="-361.5" font-family="Times Roman,serif" font-size="30.00">Web Tools</text>
</g>
<!-- u3&#45;&gt;n4 -->
<g id="edge11" class="edge"><title>u3&#45;&gt;n4</title>
<path fill="none" stroke="black" d="M485.141,-340.341C484.146,-323.446 483.985,-302.249 484.655,-283.953"/>
<polygon fill="black" stroke="black" points="488.156,-284.006 485.129,-273.853 481.164,-283.677 488.156,-284.006"/>
</g>
<!-- u3&#45;&gt;n4 -->
<g id="edge15" class="edge"><title>u3&#45;&gt;n4</title>
<path fill="none" stroke="black" d="M496.859,-340.341C497.854,-323.446 498.015,-302.249 497.345,-283.953"/>
<polygon fill="black" stroke="black" points="500.836,-283.677 496.871,-273.853 493.844,-284.006 500.836,-283.677"/>
</g>
</g>
</svg>
