<?xml version="1.0" encoding="UTF-8" standalone="no"?>
<!-- Created with Inkscape (http://www.inkscape.org/) -->
<svg id="svg3791" xmlns:rdf="http://www.w3.org/1999/02/22-rdf-syntax-ns#" xmlns="http://www.w3.org/2000/svg" height="157.86" width="500" version="1.1" xmlns:cc="http://creativecommons.org/ns#" xmlns:dc="http://purl.org/dc/elements/1.1/">
 <title id="title2861">Open UDC 250x250 slogan</title>
 <defs id="defs3793">
  <filter id="filter2940" color-interpolation-filters="sRGB">
   <feGaussianBlur id="feGaussianBlur2942" stdDeviation="5" result="result91"/>
   <feComposite id="feComposite2944" operator="over" in2="result91" in="SourceGraphic"/>
  </filter>
 </defs>
 <metadata id="metadata3796">
  <rdf:RDF>
   <cc:Work rdf:about="">
    <dc:format>image/svg+xml</dc:format>
    <dc:type rdf:resource="http://purl.org/dc/dcmitype/StillImage"/>
    <dc:title>Open UDC 250x250 slogan</dc:title>
    <dc:creator>
     <cc:Agent>
      <dc:title>Thomas Guillot</dc:title>
     </cc:Agent>
    </dc:creator>
    <cc:license rdf:resource="http://creativecommons.org/licenses/by-sa/3.0/"/>
   </cc:Work>
   <cc:License rdf:about="http://creativecommons.org/licenses/by-sa/3.0/">
    <cc:permits rdf:resource="http://creativecommons.org/ns#Reproduction"/>
    <cc:permits rdf:resource="http://creativecommons.org/ns#Distribution"/>
    <cc:requires rdf:resource="http://creativecommons.org/ns#Notice"/>
    <cc:requires rdf:resource="http://creativecommons.org/ns#Attribution"/>
    <cc:permits rdf:resource="http://creativecommons.org/ns#DerivativeWorks"/>
    <cc:requires rdf:resource="http://creativecommons.org/ns#ShareAlike"/>
   </cc:License>
  </rdf:RDF>
 </metadata>
 <g id="layer1" transform="translate(125.14908,-764.06)">
  <g id="flowRoot3693" style="font-size:18px;font-family:Bitstream Vera Sans;writing-mode:lr-tb;fill:#000000;text-anchor:start;font-style:normal;font-weight:normal;line-height:125%;text-align:start;" transform="matrix(2.9100702,0,0,2.9100702,-972.45391,724.22251)">
   <path id="path3735" style="fill:#4d4d4d;" d="m295.75,26.289,5.9147,0-2.9748-8.4579-2.9398,8.4579m6.5446,1.8082-7.1746,0-1.5632,4.4914-2.3915,0c0.10122-0.23332,0.20611-0.47831,0.315-0.73496,0.10879-0.25665,0.22554-0.54441,0.34997-0.86329,0.1322-0.32665,0.2761-0.69607,0.43164-1.1083,0.15553-0.4122,0.33443-0.8905,0.53663-1.4349l4.6664-12.891h2.5082l4.6664,12.891c0.19441,0.54442,0.3694,1.0227,0.52496,1.4349,0.15554,0.4122,0.29941,0.78163,0.43165,1.1083,0.13219,0.31887,0.25274,0.60663,0.36163,0.86329,0.1088,0.25665,0.21387,0.50164,0.315,0.73496h-2.3915l-1.5866-4.4914"/>
   <path id="path3737" style="fill:#4d4d4d;" d="m313.89,20.981,2.3332,0,0-2.0416c0-1.7499,0.35386-3.0604,1.0616-3.9314,0.7155-0.87882,1.7032-1.3182,2.9632-1.3183,0.45885,0.00002,0.90994,0.07392,1.3532,0.22166,0.4433,0.14001,0.84772,0.33833,1.2133,0.59497l-0.53665,1.7499c-0.29553-0.21775-0.62218-0.38885-0.97993-0.5133-0.35778-0.12442-0.70775-0.18664-1.0499-0.18666-0.30334,0.000018-0.57164,0.05446-0.80497,0.16333-0.23332,0.10113-0.42774,0.26833-0.58329,0.50164-0.15555,0.23334-0.2761,0.53665-0.36165,0.90995-0.0777,0.36555-0.11665,0.81275-0.11665,1.3416v2.5082h3.1498v1.6916h-3.1498v4.1531c-0.00001,0.56775,0.003,1.1316,0.012,1.6916,0.0156,0.5522,0.035,1.0811,0.0584,1.5866,0.031,0.49775,0.0699,0.9605,0.11665,1.3883,0.0466,0.42776,0.10122,0.79329,0.16333,1.0966h-2.5082v-9.9161h-2.3332v-1.6916"/>
   <path id="path3739" style="fill:#4d4d4d;" d="m324,32.588,0-7.1746c0-1.151-0.066-2.1232-0.1983-2.9165-0.12438-0.80106-0.25278-1.4038-0.38498-1.8082h2.0999c0.0934,0.21778,0.17499,0.49387,0.245,0.82829,0.0778,0.32666,0.13999,0.69219,0.18666,1.0966,0.0545,0.40443,0.0934,0.83607,0.11664,1.2949,0.0233,0.45887,0.035,0.92162,0.035,1.3883v0.75829c0.39666-1.0966,0.78553-2.0027,1.1666-2.7182,0.38109-0.72328,0.75829-1.2988,1.1316-1.7266,0.38107-0.42774,0.76217-0.72717,1.1433-0.89828,0.38107-0.17109,0.76994-0.25664,1.1666-0.25665,0.29552,0.000013,0.56773,0.02724,0.81662,0.08167,0.24887,0.05445,0.50163,0.14389,0.75829,0.26832l-0.34997,2.1582c-0.22556-0.09333-0.42389-0.15554-0.59498-0.18666-0.17111-0.03109-0.38109-0.04666-0.62996-0.04667-0.31889,0.000008-0.65331,0.13611-1.0033,0.40831-0.34998,0.26444-0.69607,0.61831-1.0383,1.0616-0.33444,0.44332-0.6533,0.94495-0.95661,1.5049-0.30333,0.55997-0.57164,1.1355-0.80497,1.7266-0.22555,0.5833-0.4083,1.1549-0.54831,1.7149-0.13219,0.55997-0.1983,1.0577-0.1983,1.4932v0.53664c0.008,0.16332,0.0196,0.32276,0.035,0.47831,0.0233,0.14777,0.0506,0.29943,0.0816,0.45497,0.031,0.14777,0.0699,0.3072,0.11665,0.47831h-2.3915"/>
   <path id="path3741" style="fill:#4d4d4d;" d="m339.31,20.456c0.63773,0.000013,1.2016,0.07777,1.6916,0.23332,0.48996,0.14778,0.91382,0.35777,1.2716,0.62996,0.35774,0.26444,0.65716,0.57554,0.89827,0.93328,0.24109,0.35777,0.43165,0.74275,0.57164,1.1549,0.14777,0.41221,0.25276,0.84385,0.31498,1.2949,0.0623,0.44332,0.0934,0.88274,0.0934,1.3183v0.45498c0,0.19444-0.003,0.3461-0.012,0.45498h-8.2712c0.0233,0.68441,0.12836,1.2794,0.31498,1.7849,0.19443,0.50553,0.45498,0.92551,0.78163,1.2599,0.33442,0.32665,0.72329,0.57164,1.1666,0.73496,0.45108,0.16333,0.94104,0.24499,1.4699,0.24499,0.75439,0.000002,1.4932-0.08555,2.2165-0.25665,0.72329-0.1711,1.4427-0.47442,2.1582-0.90995l0.23333,1.9249c-0.41223,0.20999-0.81664,0.38887-1.2133,0.53664-0.39665,0.14777-0.79331,0.26832-1.1899,0.36165-0.39666,0.09333-0.80108,0.15944-1.2133,0.19832-0.40443,0.04667-0.83218,0.06999-1.2833,0.06999-0.74664,0-1.4582-0.12833-2.1349-0.38498-0.67663-0.26443-1.2716-0.64941-1.7849-1.1549-0.51332-0.5133-0.92162-1.1472-1.2249-1.9016-0.30332-0.7544-0.45498-1.6294-0.45498-2.6249,0-0.96438,0.12836-1.8354,0.38498-2.6132,0.26443-0.7855,0.63775-1.4544,1.1199-2.0066,0.4822-0.55996,1.0694-0.98771,1.7616-1.2833,0.69217-0.3033,1.4699-0.45496,2.3332-0.45497m-0.17499,1.7499c-0.85553,0.00001-1.5555,0.25277-2.0999,0.75829-0.54443,0.49776-0.90217,1.2755-1.0733,2.3332h6.0897c0-0.49774-0.0739-0.93716-0.22166-1.3183-0.13999-0.38886-0.3422-0.71551-0.60663-0.97994-0.25667-0.26442-0.56386-0.46274-0.92162-0.59497-0.35776-0.1322-0.74663-0.19831-1.1666-0.19832"/>
   <path id="path3743" style="fill:#4d4d4d;" d="m352.09,20.456c0.63774,0.000013,1.2016,0.07777,1.6916,0.23332,0.48996,0.14778,0.91384,0.35777,1.2716,0.62996,0.35774,0.26444,0.65718,0.57554,0.89828,0.93328,0.2411,0.35777,0.43163,0.74275,0.57164,1.1549,0.14775,0.41221,0.25275,0.84385,0.31497,1.2949,0.0624,0.44332,0.0934,0.88274,0.0934,1.3183v0.45498c-0.00001,0.19444-0.003,0.3461-0.0119,0.45498h-8.2712c0.0233,0.68441,0.12836,1.2794,0.315,1.7849,0.19442,0.50553,0.45497,0.92551,0.78161,1.2599,0.33443,0.32665,0.72329,0.57164,1.1666,0.73496,0.45108,0.16333,0.94106,0.24499,1.4699,0.24499,0.75441,0.000002,1.4932-0.08555,2.2165-0.25665s1.4427-0.47442,2.1582-0.90995l0.23331,1.9249c-0.41219,0.20999-0.81663,0.38887-1.2133,0.53664-0.39665,0.14777-0.79328,0.26832-1.1899,0.36165-0.39665,0.09333-0.80109,0.15944-1.2133,0.19832-0.40441,0.04667-0.83218,0.06999-1.2832,0.06999-0.74663,0-1.4583-0.12833-2.1349-0.38498-0.67663-0.26443-1.2716-0.64941-1.7849-1.1549-0.5133-0.5133-0.92163-1.1472-1.2249-1.9016-0.30333-0.7544-0.45497-1.6294-0.45497-2.6249,0-0.96438,0.12834-1.8354,0.38495-2.6132,0.26444-0.7855,0.63776-1.4544,1.12-2.0066,0.48218-0.55996,1.0694-0.98771,1.7616-1.2833,0.69219-0.3033,1.4699-0.45496,2.3332-0.45497m-0.17499,1.7499c-0.85553,0.00001-1.5555,0.25277-2.0999,0.75829-0.54442,0.49776-0.90217,1.2755-1.0733,2.3332h6.0897c-0.00001-0.49774-0.0739-0.93716-0.22166-1.3183-0.13999-0.38886-0.34221-0.71551-0.60664-0.97994-0.25664-0.26442-0.56386-0.46274-0.92159-0.59497-0.35778-0.1322-0.74665-0.19831-1.1666-0.19832"/>
   <path id="path3745" style="fill:#4d4d4d;" d="m370.62,20.456c0.41997,0.000013,0.81272,0.02724,1.1783,0.08167,0.37331,0.05445,0.71162,0.12834,1.015,0.22165,0.31108,0.08557,0.59495,0.18667,0.85161,0.30332,0.25664,0.10889,0.48609,0.21778,0.68831,0.32665l-0.40832,2.0416c-0.19444-0.11665-0.41609-0.2372-0.66497-0.36164-0.24887-0.1322-0.52108-0.25276-0.81661-0.36165-0.28778-0.10887-0.59886-0.19831-0.93329-0.26832-0.32664-0.07776-0.66885-0.11665-1.0266-0.11666-0.42774,0.000009-0.7894,0.04667-1.0849,0.13999-0.28776,0.09334-0.52108,0.21389-0.69996,0.36165-0.17111,0.14-0.29554,0.30333-0.3733,0.48997-0.0778,0.17889-0.11665,0.35388-0.11665,0.52497,0,0.20222,0.031,0.3811,0.0934,0.53664,0.0623,0.15555,0.19054,0.29943,0.38498,0.43164,0.2022,0.13223,0.48609,0.26055,0.85161,0.38498,0.36554,0.12444,0.85551,0.25666,1.4699,0.39664,0.52885,0.11667,1.0266,0.26832,1.4932,0.45497,0.46664,0.17889,0.87495,0.40832,1.2249,0.6883,0.34998,0.27999,0.62607,0.6183,0.82829,1.0149,0.2022,0.38887,0.30331,0.85551,0.30331,1.3999,0,0.52886-0.11664,1.0188-0.34998,1.4699-0.23334,0.45109-0.5522,0.84773-0.95661,1.1899-0.40443,0.33443-0.87885,0.59497-1.4233,0.78162-0.54442,0.19443-1.1316,0.29165-1.7616,0.29165-0.47443,0-0.93329-0.03501-1.3766-0.10499-0.43553-0.07-0.84775-0.16721-1.2366-0.29165-0.38111-0.12444-0.73109-0.26832-1.05-0.43164-0.31888-0.16332-0.59496-0.33443-0.82828-0.5133l0.58329-2.0999c0.26444,0.23332,0.55996,0.4472,0.88662,0.64163,0.33442,0.19444,0.67662,0.36165,1.0266,0.50164,0.34999,0.13999,0.69996,0.24888,1.0499,0.32665,0.35776,0.06999,0.69218,0.10499,1.0033,0.10499,0.34221,0.000003,0.65329-0.04277,0.93329-0.12833,0.28775-0.09333,0.53274-0.20999,0.73496-0.34998,0.20998-0.14777,0.3733-0.31498,0.48997-0.50164,0.11665-0.19443,0.17498-0.39275,0.17498-0.59497,0-0.21776-0.0467-0.41997-0.13999-0.60663-0.0856-0.19443-0.24888-0.3772-0.48997-0.5483-0.23332-0.17888-0.55998-0.34998-0.97995-0.5133-0.41219-0.16332-0.94495-0.32664-1.5982-0.48997-0.70773-0.1711-1.2872-0.37331-1.7382-0.60663-0.44332-0.23331-0.7933-0.48997-1.0499-0.76996-0.24889-0.27998-0.41998-0.58329-0.5133-0.90995-0.0934-0.32664-0.13999-0.67273-0.13999-1.0383,0-0.17887,0.0271-0.38886,0.0816-0.62996,0.0623-0.24109,0.15945-0.48996,0.29165-0.74662,0.14001-0.26442,0.31888-0.52107,0.53664-0.76996,0.22554-0.25664,0.50553-0.48218,0.83996-0.67663,0.33442-0.2022,0.72718-0.36552,1.1783-0.48997,0.45108-0.12442,0.97217-0.18664,1.5632-0.18666"/>
   <path id="path3747" style="fill:#4d4d4d;" d="m379.12,26.697c0,0.67664,0.0816,1.2833,0.24497,1.8199,0.16333,0.53664,0.39276,0.99161,0.68832,1.3649,0.3033,0.36554,0.66106,0.64552,1.0733,0.83996,0.4122,0.19443,0.87106,0.29165,1.3766,0.29165,0.46663,0.000002,0.90605-0.09722,1.3182-0.29165,0.41221-0.19443,0.76996-0.47442,1.0733-0.83996,0.31108-0.37331,0.55219-0.82828,0.72329-1.3649,0.17888-0.53663,0.2683-1.1433,0.26831-1.8199-0.00001-0.6844-0.0816-1.2949-0.24497-1.8316-0.16333-0.5444-0.39666-1.0033-0.69996-1.3766-0.29556-0.38108-0.65332-0.66884-1.0733-0.86329-0.41219-0.2022-0.86717-0.30331-1.3649-0.30332-0.47443,0.00001-0.91774,0.10112-1.3299,0.30332-0.41221,0.19444-0.76996,0.48221-1.0733,0.86329-0.30331,0.37332-0.5444,0.83218-0.72329,1.3766-0.17111,0.53664-0.25665,1.1472-0.25665,1.8316m-2.1582,0c0-1.0033,0.15166-1.8899,0.45498-2.6599,0.30331-0.77773,0.71162-1.431,1.2249-1.9599,0.51332-0.53662,1.1122-0.94105,1.7966-1.2133,0.6844-0.2722,1.4116-0.4083,2.1815-0.40831,0.80105,0.000013,1.5321,0.13612,2.1932,0.40831,0.66884,0.27222,1.2405,0.67664,1.7149,1.2133,0.48218,0.52887,0.85548,1.1822,1.1199,1.9599,0.26442,0.76996,0.39664,1.6566,0.39665,2.6599-0.00001,1.0033-0.15168,1.8899-0.45498,2.6599-0.30334,0.76996-0.71164,1.4155-1.2249,1.9366-0.5133,0.52108-1.1122,0.91773-1.7966,1.1899-0.68444,0.26443-1.4116,0.39664-2.1816,0.39664-0.80107,0-1.536-0.13222-2.2049-0.39664-0.66108-0.27221-1.2327-0.66885-1.7149-1.1899-0.47441-0.52108-0.84384-1.1666-1.1083-1.9366-0.26443-0.76995-0.39666-1.6566-0.39666-2.6599"/>
   <path id="path3749" style="fill:#4d4d4d;" d="m389.62,20.981,2.3332,0,0-2.0416c0-1.7499,0.35387-3.0604,1.0616-3.9314,0.71552-0.87882,1.7032-1.3182,2.9632-1.3183,0.45885,0.00002,0.90993,0.07392,1.3532,0.22166,0.4433,0.14001,0.84773,0.33833,1.2133,0.59497l-0.53663,1.7499c-0.29557-0.21775-0.6222-0.38885-0.97996-0.5133-0.35775-0.12442-0.70773-0.18664-1.0499-0.18666-0.30332,0.000018-0.57165,0.05446-0.80496,0.16333-0.23332,0.10113-0.42777,0.26833-0.5833,0.50164-0.15556,0.23334-0.2761,0.53665-0.36165,0.90995-0.0777,0.36555-0.11664,0.81275-0.11664,1.3416v2.5082h3.1498v1.6916h-3.1498v4.1531c0,0.56775,0.003,1.1316,0.0119,1.6916,0.0156,0.5522,0.035,1.0811,0.0582,1.5866,0.031,0.49775,0.0699,0.9605,0.11664,1.3883,0.0467,0.42776,0.10123,0.79329,0.16333,1.0966h-2.5082v-9.9161h-2.3332v-1.6916"/>
   <path id="path3751" style="fill:#4d4d4d;" d="m398.28,20.981,2.3332,0,0-3.7915,2.1582,0,0,3.7915,3.7915,0,0,1.6916-3.7915,0,0,5.3664c0,0.59886,0.0271,1.0888,0.0816,1.4699,0.0623,0.38109,0.15165,0.68052,0.26832,0.89828,0.12438,0.20999,0.27998,0.35387,0.46664,0.43164s0.4122,0.11666,0.67662,0.11666c0.33442,0.000001,0.71162-0.07387,1.1316-0.22166,0.41996-0.14777,0.8866-0.36553,1.3999-0.6533v1.8666c-0.53664,0.34998-1.05,0.59108-1.5399,0.72329-0.48997,0.13999-0.94107,0.20999-1.3532,0.20999-0.45886,0-0.88662-0.05445-1.2833-0.16332-0.39665-0.10111-0.74664-0.28387-1.05-0.5483-0.29553-0.26443-0.52885-0.61441-0.69994-1.0499-0.17112-0.44331-0.25667-1.0033-0.25666-1.6799v-6.7663h-2.3332v-1.6916"/>
   <path id="path3753" style="fill:#4d4d4d;" d="m417.6,20.689,3.0332,9.3911,2.4499-9.3911,2.1582,0c-0.14,0.44332-0.26443,0.84385-0.37331,1.2016-0.10122,0.34999-0.19833,0.6883-0.29166,1.0149-0.0934,0.31888-0.18666,0.63386-0.27998,0.94495-0.0856,0.30332-0.17888,0.62997-0.27998,0.97994l-2.1582,7.7579h-2.2165l-2.9165-9.1578-2.9165,9.1578h-2.2166l-2.1582-7.7579c-0.0856-0.31108-0.175-0.61829-0.26832-0.92161-0.0855-0.30331-0.17889-0.61829-0.27999-0.94495-0.0934-0.32664-0.19443-0.67662-0.30331-1.0499-0.1088-0.3733-0.23334-0.78161-0.37331-1.2249h2.1582l2.4499,9.3911,3.0332-9.3911h1.7499"/>
   <path id="path3755" style="fill:#4d4d4d;" d="m432.73,22.439c-0.24889,0.00001-0.50165,0.03113-0.75829,0.09333-0.24889,0.05445-0.49776,0.15167-0.74663,0.29165-0.24111,0.14-0.47831,0.32666-0.71163,0.55997-0.22554,0.22555-0.43941,0.51331-0.64162,0.86329-0.21,0.35777-0.3811,0.80496-0.51331,1.3416-0.12451,0.52886-0.18665,1.0733-0.18665,1.6332,0,0.64552,0.0584,1.2016,0.17499,1.6682,0.12437,0.45887,0.28386,0.83996,0.4783,1.1433,0.20221,0.29554,0.42775,0.51331,0.67662,0.6533,0.25665,0.14,0.51331,0.20999,0.76996,0.20999,0.32664,0.000002,0.68051-0.10111,1.0616-0.30332,0.38885-0.20221,0.76605-0.47053,1.1316-0.80496,0.36551-0.33442,0.70772-0.7194,1.0266-1.1549,0.32665-0.43553,0.59497-0.88661,0.80496-1.3533v-4.3748c-0.11665-0.05444-0.26834-0.10887-0.45497-0.16332-0.1789-0.05444-0.3811-0.10498-0.60664-0.15166-0.21777-0.04666-0.45886-0.08165-0.72329-0.10499-0.25666-0.03109-0.5172-0.04666-0.78162-0.04667m4.7247,3.9664c-0.00002,1.4699,0.0816,2.7065,0.24499,3.7098,0.1633,0.9955,0.3733,1.8199,0.62996,2.4732h-2.0416c-0.0389-0.10111-0.0934-0.2411-0.16332-0.41998-0.0699-0.17888-0.14388-0.38109-0.22166-0.60663-0.0699-0.23332-0.14-0.48219-0.20998-0.74662-0.0621-0.26443-0.11664-0.52886-0.16333-0.79329-0.30333,0.38887-0.62609,0.7544-0.96827,1.0966-0.33444,0.3422-0.68831,0.64552-1.0616,0.90995-0.37332,0.26443-0.76219,0.47053-1.1666,0.6183-0.40443,0.15555-0.81663,0.23332-1.2366,0.23332-0.48998,0-0.97996-0.10499-1.4699-0.31498-0.48221-0.20999-0.91773-0.52497-1.3066-0.94495s-0.70384-0.94494-0.94494-1.5749c-0.24111-0.63774-0.36166-1.3844-0.36165-2.2399-0.00001-0.89439,0.0972-1.7032,0.29164-2.4265,0.20222-0.73106,0.47443-1.3805,0.81664-1.9482,0.30331-0.49774,0.62606-0.93327,0.96827-1.3066,0.3422-0.3733,0.71551-0.68051,1.1199-0.92161,0.41219-0.24886,0.86329-0.43552,1.3532-0.55997,0.48998-0.12442,1.0344-0.18664,1.6332-0.18666,0.29553,0.000012,0.62217,0.02336,0.97994,0.06999,0.36553,0.03891,0.73495,0.09723,1.1083,0.17499,0.38107,0.07777,0.75828,0.17111,1.1316,0.27998,0.37329,0.10889,0.71939,0.22556,1.0383,0.34998v5.0747"/>
   <path id="path3757" style="fill:#4d4d4d;" d="m441.04,32.588,0-7.1746c0-1.151-0.066-2.1232-0.19833-2.9165-0.12437-0.80106-0.25276-1.4038-0.38497-1.8082h2.0999c0.0934,0.21778,0.17498,0.49387,0.24498,0.82829,0.0778,0.32666,0.13998,0.69219,0.18665,1.0966,0.0545,0.40443,0.0934,0.83607,0.11665,1.2949,0.0233,0.45887,0.035,0.92162,0.035,1.3883v0.75829c0.39663-1.0966,0.7855-2.0027,1.1666-2.7182,0.38108-0.72328,0.75827-1.2988,1.1316-1.7266,0.3811-0.42774,0.76219-0.72717,1.1433-0.89828,0.38109-0.17109,0.76996-0.25664,1.1666-0.25665,0.29553,0.000013,0.56774,0.02724,0.81661,0.08167,0.24888,0.05445,0.50164,0.14389,0.7583,0.26832l-0.34998,2.1582c-0.22557-0.09333-0.42387-0.15554-0.59497-0.18666-0.1711-0.03109-0.3811-0.04666-0.62996-0.04667-0.31888,0.000008-0.6533,0.13611-1.0033,0.40831-0.35001,0.26444-0.69609,0.61831-1.0383,1.0616-0.33442,0.44332-0.65331,0.94495-0.95661,1.5049-0.30333,0.55997-0.57163,1.1355-0.80497,1.7266-0.22554,0.5833-0.40831,1.1549-0.54828,1.7149-0.13222,0.55997-0.19834,1.0577-0.19834,1.4932v0.53664c0.008,0.16332,0.0193,0.32276,0.035,0.47831,0.0233,0.14777,0.0506,0.29943,0.0816,0.45497,0.031,0.14777,0.0699,0.3072,0.11665,0.47831h-2.3915"/>
   <path id="path3759" style="fill:#4d4d4d;" d="m456.34,20.456c0.63774,0.000013,1.2016,0.07777,1.6916,0.23332,0.48996,0.14778,0.91382,0.35777,1.2716,0.62996,0.35774,0.26444,0.65717,0.57554,0.89828,0.93328,0.24108,0.35777,0.43163,0.74275,0.57163,1.1549,0.14775,0.41221,0.25275,0.84385,0.31499,1.2949,0.0623,0.44332,0.0934,0.88274,0.0934,1.3183v0.45498c-0.00002,0.19444-0.003,0.3461-0.012,0.45498h-8.2712c0.0233,0.68441,0.12834,1.2794,0.31497,1.7849,0.19444,0.50553,0.45497,0.92551,0.78163,1.2599,0.33442,0.32665,0.72328,0.57164,1.1666,0.73496,0.45108,0.16333,0.94106,0.24499,1.4699,0.24499,0.75439,0.000002,1.4932-0.08555,2.2165-0.25665,0.72328-0.1711,1.4427-0.47442,2.1582-0.90995l0.23332,1.9249c-0.4122,0.20999-0.81663,0.38887-1.2133,0.53664-0.39666,0.14777-0.7933,0.26832-1.1899,0.36165-0.39666,0.09333-0.80107,0.15944-1.2133,0.19832-0.40444,0.04667-0.83219,0.06999-1.2833,0.06999-0.74662,0-1.4582-0.12833-2.1349-0.38498-0.67663-0.26443-1.2716-0.64941-1.7849-1.1549-0.5133-0.5133-0.92159-1.1472-1.2249-1.9016-0.3033-0.7544-0.45497-1.6294-0.45497-2.6249,0-0.96438,0.12837-1.8354,0.38499-2.6132,0.26441-0.7855,0.63772-1.4544,1.1199-2.0066,0.4822-0.55996,1.0694-0.98771,1.7616-1.2833,0.69217-0.3033,1.4699-0.45496,2.3332-0.45497m-0.17499,1.7499c-0.8555,0.00001-1.5555,0.25277-2.0999,0.75829-0.54442,0.49776-0.90219,1.2755-1.0733,2.3332h6.0897c-0.00002-0.49774-0.0739-0.93716-0.22165-1.3183-0.14001-0.38886-0.34223-0.71551-0.60664-0.97994-0.25666-0.26442-0.56387-0.46274-0.92162-0.59497-0.35776-0.1322-0.74663-0.19831-1.1666-0.19832"/>
   <path id="path3761" style="fill:#4d4d4d;" d="m291.16,50.846,2.3332,0,0-2.0416c0-1.7499,0.35386-3.0604,1.0616-3.9314,0.71551-0.87882,1.7032-1.3182,2.9632-1.3183,0.45885,0.00002,0.90993,0.07392,1.3532,0.22166,0.4433,0.14001,0.84775,0.33833,1.2133,0.59497l-0.53663,1.7499c-0.29556-0.21775-0.62221-0.38885-0.97995-0.5133-0.35778-0.12442-0.70775-0.18664-1.05-0.18666-0.30331,0.000018-0.57164,0.05446-0.80494,0.16332-0.23335,0.10113-0.42777,0.26834-0.58332,0.50164-0.15555,0.23334-0.2761,0.53665-0.36164,0.90995-0.0778,0.36555-0.11664,0.81275-0.11664,1.3416v2.5082h3.1498v1.6916h-3.1498v4.1531c0,0.56775,0.003,1.1316,0.0119,1.6916,0.0156,0.5522,0.035,1.0811,0.0584,1.5866,0.031,0.49775,0.0699,0.9605,0.11665,1.3883,0.0466,0.42775,0.10122,0.79329,0.16331,1.0966h-2.5082v-9.9161h-2.3332v-1.6916"/>
   <path id="path3763" style="fill:#4d4d4d;" d="m302.74,56.562c0,0.67664,0.0816,1.2833,0.24497,1.8199,0.16333,0.53664,0.39276,0.99161,0.6883,1.3649,0.30332,0.36554,0.66107,0.64552,1.0733,0.83995,0.41219,0.19444,0.87105,0.29165,1.3766,0.29165,0.46665,0.000001,0.90605-0.09722,1.3183-0.29165,0.4122-0.19443,0.76997-0.47442,1.0733-0.83995,0.31109-0.37331,0.55218-0.82828,0.72329-1.3649,0.17887-0.53663,0.26831-1.1433,0.26832-1.8199-0.00001-0.6844-0.0816-1.2949-0.24497-1.8316-0.16334-0.54441-0.39668-1.0033-0.69998-1.3766-0.29554-0.38108-0.65331-0.66884-1.0733-0.86329-0.41221-0.2022-0.86718-0.3033-1.3649-0.30332-0.47442,0.00001-0.91772,0.10112-1.3299,0.30332-0.41221,0.19444-0.76996,0.48221-1.0733,0.86329-0.3033,0.37332-0.54442,0.83218-0.72329,1.3766-0.17111,0.53664-0.25664,1.1472-0.25664,1.8316m-2.1582,0c0-1.0033,0.15166-1.8899,0.45497-2.6599,0.3033-0.77773,0.71163-1.431,1.2249-1.9599,0.5133-0.53662,1.1122-0.94105,1.7966-1.2133,0.68442-0.27219,1.4116-0.4083,2.1815-0.40831,0.80107,0.000012,1.5321,0.13612,2.1932,0.40831,0.66884,0.27222,1.2405,0.67664,1.7149,1.2133,0.48217,0.52887,0.85548,1.1822,1.1199,1.9599,0.26441,0.76996,0.39664,1.6566,0.39665,2.6599-0.00001,1.0033-0.15168,1.8899-0.45498,2.6599-0.30334,0.76996-0.71164,1.4155-1.2249,1.9366-0.51334,0.52108-1.1122,0.91773-1.7966,1.1899-0.68441,0.26443-1.4116,0.39664-2.1815,0.39664-0.80106,0-1.536-0.13222-2.2049-0.39664-0.66108-0.27221-1.2327-0.66885-1.7149-1.1899-0.47442-0.52108-0.84384-1.1666-1.1083-1.9366-0.26444-0.76995-0.39664-1.6566-0.39664-2.6599"/>
   <path id="path3765" style="fill:#4d4d4d;" d="m314.58,62.453,0-7.1746c0-1.151-0.066-2.1232-0.19831-2.9165-0.12438-0.80105-0.25277-1.4038-0.38498-1.8082h2.0999c0.0934,0.21778,0.17498,0.49387,0.245,0.82829,0.0778,0.32666,0.13998,0.69219,0.18664,1.0966,0.0545,0.40443,0.0934,0.83607,0.11665,1.2949,0.0233,0.45887,0.035,0.92162,0.035,1.3883v0.75829c0.39665-1.0966,0.78552-2.0027,1.1666-2.7182,0.38107-0.72328,0.75828-1.2988,1.1316-1.7266,0.38107-0.42774,0.76217-0.72717,1.1433-0.89828,0.38108-0.17109,0.76994-0.25664,1.1666-0.25665,0.29554,0.000012,0.56774,0.02725,0.81663,0.08165,0.24886,0.05446,0.50163,0.14389,0.75829,0.26832l-0.34999,2.1582c-0.22555-0.09332-0.42387-0.15554-0.59496-0.18666-0.17111-0.03109-0.3811-0.04666-0.62997-0.04667-0.31887,0.00001-0.6533,0.13611-1.0033,0.40831-0.34997,0.26444-0.69608,0.61831-1.0383,1.0616-0.33443,0.44332-0.65331,0.94495-0.95661,1.5049-0.30333,0.55998-0.57164,1.1355-0.80495,1.7266-0.22555,0.5833-0.40832,1.1549-0.54831,1.7149-0.1322,0.55997-0.19833,1.0577-0.19832,1.4933-0.00001,0.19444-0.00001,0.37331,0,0.53664,0.008,0.16332,0.0193,0.32276,0.035,0.47831,0.0233,0.14777,0.0506,0.29943,0.0816,0.45498,0.031,0.14777,0.0699,0.3072,0.11664,0.47831h-2.3915"/>
   <path id="path3767" style="fill:#4d4d4d;" d="m330.08,50.846,2.3332,0,0-2.0416c0-1.7499,0.35386-3.0604,1.0616-3.9314,0.71552-0.87882,1.7032-1.3182,2.9632-1.3183,0.45885,0.00002,0.90996,0.07392,1.3533,0.22166,0.44327,0.14001,0.84771,0.33833,1.2132,0.59497l-0.53663,1.7499c-0.29556-0.21775-0.62222-0.38885-0.97995-0.5133-0.35776-0.12442-0.70776-0.18664-1.05-0.18666-0.30332,0.000018-0.57163,0.05446-0.80494,0.16332-0.23334,0.10113-0.42777,0.26834-0.58331,0.50164-0.15557,0.23334-0.27611,0.53665-0.36165,0.90995-0.0777,0.36555-0.11665,0.81275-0.11665,1.3416v2.5082h3.1498v1.6916h-3.1498v4.1531c0,0.56775,0.003,1.1316,0.012,1.6916,0.0156,0.5522,0.035,1.0811,0.0584,1.5866,0.031,0.49775,0.0699,0.9605,0.11665,1.3883,0.0467,0.42775,0.10122,0.79329,0.16333,1.0966h-2.5082v-9.9161h-2.3332v-1.6916"/>
   <path id="path3769" style="fill:#4d4d4d;" d="m340.2,62.453,0-7.1746c0-1.151-0.066-2.1232-0.19833-2.9165-0.12437-0.80105-0.25275-1.4038-0.38498-1.8082h2.0999c0.0934,0.21778,0.17498,0.49387,0.24498,0.82829,0.0778,0.32666,0.14,0.69219,0.18667,1.0966,0.0545,0.40443,0.0934,0.83607,0.11665,1.2949,0.0233,0.45887,0.035,0.92162,0.035,1.3883v0.75829c0.39664-1.0966,0.78551-2.0027,1.1666-2.7182,0.38109-0.72328,0.75828-1.2988,1.1316-1.7266,0.38108-0.42774,0.76217-0.72717,1.1433-0.89828,0.38109-0.17109,0.76996-0.25664,1.1666-0.25665,0.29553,0.000012,0.56774,0.02725,0.81662,0.08165,0.24887,0.05446,0.50163,0.14389,0.75829,0.26832l-0.34998,2.1582c-0.22554-0.09332-0.42388-0.15554-0.59497-0.18666-0.1711-0.03109-0.38109-0.04666-0.62996-0.04667-0.31888,0.00001-0.65331,0.13611-1.0033,0.40831-0.34998,0.26444-0.69609,0.61831-1.0383,1.0616-0.33444,0.44332-0.6533,0.94495-0.95662,1.5049-0.30332,0.55998-0.57163,1.1355-0.80495,1.7266-0.22555,0.5833-0.40832,1.1549-0.5483,1.7149-0.13221,0.55997-0.19833,1.0577-0.19833,1.4933v0.53664c0.008,0.16332,0.0193,0.32276,0.035,0.47831,0.0233,0.14777,0.0506,0.29943,0.0816,0.45498,0.031,0.14777,0.0699,0.3072,0.11664,0.47831h-2.3915"/>
   <path id="path3771" style="fill:#4d4d4d;" d="m355.5,50.321c0.63776,0.000012,1.2016,0.07777,1.6916,0.23332,0.48995,0.14778,0.91383,0.35777,1.2716,0.62996,0.35777,0.26444,0.65719,0.57553,0.8983,0.93328,0.24109,0.35777,0.43163,0.74275,0.57164,1.1549,0.14775,0.41221,0.25275,0.84385,0.31497,1.2949,0.0623,0.44332,0.0934,0.88274,0.0934,1.3183v0.45498c-0.00001,0.19444-0.003,0.3461-0.0119,0.45497h-8.2712c0.0233,0.68441,0.12834,1.2794,0.31497,1.7849,0.19444,0.50553,0.45496,0.92551,0.78162,1.2599,0.33442,0.32665,0.72329,0.57164,1.1666,0.73496,0.45108,0.16333,0.94106,0.24499,1.4699,0.24499,0.75438,0.000002,1.4932-0.08556,2.2165-0.25665,0.7233-0.1711,1.4427-0.47442,2.1582-0.90995l0.23331,1.9249c-0.4122,0.20999-0.81661,0.38887-1.2132,0.53664-0.39667,0.14777-0.79331,0.26832-1.19,0.36165-0.39664,0.09333-0.80106,0.15944-1.2133,0.19832-0.40442,0.04667-0.83218,0.06999-1.2833,0.06999-0.74662,0-1.4582-0.12833-2.1349-0.38498-0.67662-0.26443-1.2716-0.64941-1.7849-1.1549-0.5133-0.5133-0.92163-1.1472-1.2249-1.9016-0.30331-0.7544-0.45498-1.6294-0.45498-2.6249,0-0.96438,0.12834-1.8354,0.38498-2.6132,0.26444-0.7855,0.63774-1.4544,1.1199-2.0066,0.48218-0.55996,1.0694-0.98771,1.7616-1.2833,0.6922-0.3033,1.4699-0.45496,2.3332-0.45497m-0.17498,1.7499c-0.85551,0.000011-1.5555,0.25277-2.0999,0.75829-0.54439,0.49776-0.90217,1.2755-1.0733,2.3332h6.0897c-0.00001-0.49774-0.0739-0.93716-0.22163-1.3183-0.14002-0.38886-0.34223-0.71551-0.60664-0.97994-0.25667-0.26442-0.56388-0.46274-0.92163-0.59497-0.35774-0.1322-0.74661-0.19831-1.1666-0.19832"/>
   <path id="path3773" style="fill:#4d4d4d;" d="m368.29,50.321c0.63775,0.000012,1.2016,0.07777,1.6916,0.23332,0.48995,0.14778,0.91382,0.35777,1.2716,0.62996,0.35774,0.26444,0.65717,0.57553,0.89827,0.93328,0.24109,0.35777,0.43163,0.74275,0.57164,1.1549,0.14777,0.41221,0.25275,0.84385,0.31498,1.2949,0.0621,0.44332,0.0934,0.88274,0.0934,1.3183v0.45498c-0.00001,0.19444-0.003,0.3461-0.012,0.45497h-8.2712c0.0233,0.68441,0.12834,1.2794,0.31499,1.7849,0.19442,0.50553,0.45497,0.92551,0.78161,1.2599,0.33442,0.32665,0.72329,0.57164,1.1666,0.73496,0.45108,0.16333,0.94105,0.24499,1.4699,0.24499,0.75438,0.000002,1.4932-0.08556,2.2166-0.25665,0.72328-0.1711,1.4427-0.47442,2.1582-0.90995l0.23333,1.9249c-0.41221,0.20999-0.81663,0.38887-1.2133,0.53664s-0.79332,0.26832-1.19,0.36165c-0.39665,0.09333-0.80107,0.15944-1.2132,0.19832-0.40444,0.04667-0.83219,0.06999-1.2833,0.06999-0.74663,0-1.4583-0.12833-2.1349-0.38498-0.67663-0.26443-1.2716-0.64941-1.7849-1.1549-0.5133-0.5133-0.9216-1.1472-1.2249-1.9016-0.30331-0.7544-0.45498-1.6294-0.45498-2.6249,0-0.96438,0.12837-1.8354,0.38499-2.6132,0.26443-0.7855,0.63774-1.4544,1.1199-2.0066,0.4822-0.55996,1.0694-0.98771,1.7616-1.2833,0.69217-0.3033,1.4699-0.45496,2.3332-0.45497m-0.17499,1.7499c-0.85552,0.000011-1.5555,0.25277-2.0999,0.75829-0.54442,0.49776-0.90217,1.2755-1.0733,2.3332h6.0897c0-0.49774-0.0739-0.93716-0.22165-1.3183-0.14-0.38886-0.34221-0.71551-0.60663-0.97994-0.25666-0.26442-0.56386-0.46274-0.92163-0.59497-0.35775-0.1322-0.74662-0.19831-1.1666-0.19832"/>
   <path id="path3775" style="fill:#008000;" d="m391.83,62.453-2.1582,0,0-6.6496c-0.00001-0.72329-0.0271-1.3066-0.0816-1.7499-0.0545-0.45108-0.14777-0.80106-0.27997-1.0499-0.12451-0.25664-0.29555-0.42774-0.51331-0.51331-0.21777-0.08553-0.48998-0.12831-0.81663-0.12833-0.28776,0.00001-0.57552,0.05833-0.86327,0.17499-0.28778,0.11667-0.56388,0.28388-0.82829,0.50164-0.25667,0.21-0.49776,0.46276-0.72329,0.75829-0.21778,0.28777-0.40442,0.60664-0.55998,0.95661v7.6996h-2.1582v-7.1746c0-1.151-0.066-2.1232-0.19831-2.9165-0.13221-0.80105-0.26054-1.4038-0.38498-1.8082h2.0999c0.0855,0.24889,0.15944,0.54443,0.22165,0.88662,0.0623,0.33444,0.11278,0.64164,0.15167,0.92161,0.35776-0.41219,0.69996-0.7505,1.0266-1.0149,0.32664-0.26442,0.6494-0.47052,0.96828-0.6183,0.32664-0.15553,0.64941-0.26053,0.96827-0.31498,0.31888-0.06221,0.64553-0.09332,0.97997-0.09333,0.38107,0.000013,0.72717,0.05445,1.0382,0.16332,0.3111,0.10889,0.58331,0.25278,0.81664,0.43164,0.24108,0.17889,0.44718,0.38888,0.61829,0.62996,0.1711,0.23333,0.30331,0.47832,0.39665,0.73496,0.36553-0.39663,0.71939-0.71939,1.0616-0.96828,0.34219-0.25664,0.67662-0.45496,1.0033-0.59497,0.32663-0.14776,0.64552-0.24886,0.95662-0.30332,0.31886-0.06221,0.62994-0.09332,0.93328-0.09333,0.59107,0.000012,1.0888,0.09723,1.4932,0.29165,0.4044,0.18667,0.72717,0.46665,0.96827,0.83996,0.24888,0.37332,0.42386,0.83607,0.52499,1.3883,0.10879,0.5522,0.16329,1.1899,0.1633,1.9132v7.6996h-2.1582v-6.4163c-0.00001-0.75439-0.0271-1.3688-0.0816-1.8432-0.0545-0.47441-0.14779-0.84772-0.27997-1.1199-0.12451-0.2722-0.29556-0.45885-0.5133-0.55997-0.2178-0.1011-0.48999-0.15165-0.81664-0.15166-0.28776,0.000011-0.57163,0.05833-0.85161,0.17499-0.28001,0.10889-0.5522,0.26833-0.81662,0.47831-0.25666,0.20222-0.49777,0.4511-0.7233,0.74662-0.21778,0.29555-0.41221,0.62608-0.5833,0.99161v7.6996"/>
   <path id="path3777" style="fill:#008000;" d="m403.72,56.562c0,0.67664,0.0816,1.2833,0.24499,1.8199,0.16332,0.53664,0.39275,0.99161,0.6883,1.3649,0.3033,0.36554,0.66108,0.64552,1.0733,0.83995,0.41219,0.19444,0.87105,0.29165,1.3766,0.29165,0.46662,0.000001,0.90605-0.09722,1.3182-0.29165,0.41219-0.19443,0.76994-0.47442,1.0733-0.83995,0.31109-0.37331,0.55219-0.82828,0.72332-1.3649,0.17886-0.53663,0.2683-1.1433,0.2683-1.8199,0-0.6844-0.0816-1.2949-0.24499-1.8316-0.16333-0.54441-0.39664-1.0033-0.69995-1.3766-0.29555-0.38108-0.6533-0.66884-1.0733-0.86329-0.41221-0.2022-0.86719-0.3033-1.3649-0.30332-0.47444,0.00001-0.91773,0.10112-1.3299,0.30332-0.4122,0.19444-0.76996,0.48221-1.0733,0.86329-0.30334,0.37332-0.54443,0.83218-0.72329,1.3766-0.17112,0.53664-0.25667,1.1472-0.25667,1.8316m-2.1582,0c0-1.0033,0.15166-1.8899,0.45497-2.6599,0.30332-0.77773,0.71164-1.431,1.2249-1.9599,0.5133-0.53662,1.1122-0.94105,1.7966-1.2133,0.68439-0.27219,1.4116-0.4083,2.1816-0.40831,0.80105,0.000012,1.5321,0.13612,2.1932,0.40831,0.66884,0.27222,1.2405,0.67664,1.7149,1.2133,0.48219,0.52887,0.85549,1.1822,1.1199,1.9599,0.26442,0.76996,0.39663,1.6566,0.39664,2.6599-0.00001,1.0033-0.15167,1.8899-0.45497,2.6599-0.30333,0.76996-0.71164,1.4155-1.2249,1.9366-0.51331,0.52108-1.1122,0.91773-1.7966,1.1899-0.68442,0.26443-1.4116,0.39664-2.1816,0.39664-0.80105,0-1.536-0.13222-2.2049-0.39664-0.66108-0.27221-1.2327-0.66885-1.7149-1.1899-0.47442-0.52108-0.84385-1.1666-1.1083-1.9366-0.26443-0.76995-0.39665-1.6566-0.39665-2.6599"/>
   <path id="path3779" style="fill:#008000;" d="m422.14,50.321c1.2444,0.000012,2.1971,0.40832,2.8582,1.2249,0.66106,0.80885,0.9916,2.0143,0.99161,3.6165v7.2913h-2.1582v-6.4163c-0.00001-0.73106-0.0506-1.3338-0.15167-1.8082-0.0934-0.47441-0.2372-0.84772-0.43163-1.1199-0.18667-0.27997-0.42776-0.47441-0.72329-0.5833-0.28778-0.10887-0.62998-0.16332-1.0266-0.16333-0.41998,0.00001-0.83218,0.10112-1.2366,0.30332-0.39664,0.19444-0.76219,0.4511-1.0966,0.76996-0.33443,0.3111-0.62997,0.66497-0.88662,1.0616-0.25666,0.39665-0.4472,0.7933-0.57164,1.1899v6.7663h-2.1582v-7.1746c0-1.151-0.066-2.1232-0.19833-2.9165-0.12438-0.80105-0.25277-1.4038-0.38498-1.8082h2.0999c0.0467,0.12445,0.0934,0.28777,0.13999,0.48997,0.0467,0.19444,0.0895,0.40054,0.12836,0.6183,0.0389,0.21778,0.0739,0.43165,0.10505,0.64163l0.0934,0.52497c0.73883-0.88661,1.4855-1.5243,2.2399-1.9132,0.75439-0.39663,1.5438-0.59496,2.3682-0.59497"/>
   <path id="path3781" style="fill:#008000;" d="m434.27,50.321c0.63774,0.000012,1.2016,0.07777,1.6916,0.23332,0.48995,0.14778,0.91383,0.35777,1.2716,0.62996,0.35775,0.26444,0.65717,0.57553,0.89828,0.93328,0.24108,0.35777,0.43163,0.74275,0.57165,1.1549,0.14776,0.41221,0.25274,0.84385,0.31497,1.2949,0.0624,0.44332,0.0934,0.88274,0.0934,1.3183v0.45498c-0.00001,0.19444-0.003,0.3461-0.0119,0.45497h-8.2712c0.0233,0.68441,0.12834,1.2794,0.31496,1.7849,0.19444,0.50553,0.45497,0.92551,0.78163,1.2599,0.33442,0.32665,0.72329,0.57164,1.1666,0.73496,0.45108,0.16333,0.94105,0.24499,1.4699,0.24499,0.75439,0.000002,1.4932-0.08556,2.2165-0.25665,0.72329-0.1711,1.4427-0.47442,2.1582-0.90995l0.23332,1.9249c-0.41221,0.20999-0.81662,0.38887-1.2132,0.53664-0.39668,0.14777-0.79332,0.26832-1.19,0.36165-0.39665,0.09333-0.80107,0.15944-1.2133,0.19832-0.40442,0.04667-0.83219,0.06999-1.2833,0.06999-0.74661,0-1.4582-0.12833-2.1349-0.38498-0.67662-0.26443-1.2716-0.64941-1.7849-1.1549-0.5133-0.5133-0.9216-1.1472-1.2249-1.9016-0.30331-0.7544-0.45497-1.6294-0.45497-2.6249,0-0.96438,0.12836-1.8354,0.38498-2.6132,0.26443-0.7855,0.63773-1.4544,1.1199-2.0066,0.4822-0.55996,1.0694-0.98771,1.7616-1.2833,0.69217-0.3033,1.4699-0.45496,2.3332-0.45497m-0.17498,1.7499c-0.85551,0.000011-1.5555,0.25277-2.0999,0.75829-0.54442,0.49776-0.9022,1.2755-1.0733,2.3332h6.0897c-0.00004-0.49774-0.0739-0.93716-0.22166-1.3183-0.14001-0.38886-0.34223-0.71551-0.60663-0.97994-0.25667-0.26442-0.56386-0.46274-0.92163-0.59497-0.35775-0.1322-0.74662-0.19831-1.1666-0.19832"/>
   <path id="path3783" style="fill:#008000;" d="m447.99,62.453c-0.40443,1.1199-0.80107,2.0338-1.1899,2.7415-0.38888,0.70774-0.78552,1.2638-1.1899,1.6682-0.39665,0.41219-0.81274,0.69218-1.2483,0.83995-0.42775,0.15554-0.89051,0.23331-1.3883,0.23332-0.53664-0.000005-1.0422-0.08557-1.5166-0.25665-0.46664-0.17111-0.91382-0.41609-1.3416-0.73496l0.69997-1.8666c0.12437,0.10111,0.26831,0.20221,0.43164,0.30332,0.17111,0.10888,0.34997,0.20221,0.53664,0.27998,0.19443,0.08556,0.39276,0.15554,0.59496,0.20999,0.2022,0.05444,0.40054,0.08165,0.59496,0.08165,0.23333-0.000002,0.46275-0.04278,0.6883-0.12833,0.22554-0.07777,0.4511-0.23332,0.67664-0.46664,0.23331-0.22554,0.47051-0.5483,0.71162-0.96828,0.24109-0.4122,0.49775-0.95662,0.76996-1.6332l-3.2548-8.0612c-0.21777-0.52885-0.47053-1.1238-0.75829-1.7849-0.28777-0.66106-0.65719-1.4466-1.1083-2.3565h2.3332l3.7681,9.5311c0.14776-0.41997,0.3072-0.87495,0.4783-1.3649,0.17887-0.49775,0.36164-1.0072,0.5483-1.5282,0.18665-0.52885,0.37331-1.0577,0.55998-1.5866,0.18664-0.53663,0.36552-1.0499,0.53662-1.5399,0.40442-1.151,0.81273-2.3215,1.2249-3.5115h2.3332c-0.20223,0.4511-0.38499,0.87107-0.54831,1.2599-0.16333,0.3811-0.31499,0.74274-0.45497,1.0849-0.14001,0.33444-0.26833,0.64942-0.38498,0.94495-0.1088,0.29555-0.21,0.57942-0.30332,0.85162l-2.7998,7.7579"/>
   <path id="path3785" style="fill:#008000;" d="m458.72,50.321c0.41997,0.000012,0.81273,0.02725,1.1783,0.08165,0.37331,0.05446,0.71162,0.12834,1.0149,0.22166,0.31109,0.08557,0.59497,0.18667,0.85162,0.30332,0.25664,0.10889,0.48608,0.21778,0.68831,0.32665l-0.40832,2.0416c-0.19444-0.11665-0.41609-0.2372-0.66497-0.36165-0.24888-0.1322-0.52109-0.25275-0.81661-0.36165-0.28778-0.10887-0.59887-0.19831-0.9333-0.26832-0.32663-0.07776-0.66885-0.11665-1.0266-0.11666-0.42776,0.00001-0.78941,0.04667-1.085,0.13999-0.28776,0.09334-0.52107,0.21389-0.69995,0.36165-0.17111,0.14-0.29554,0.30333-0.37331,0.48997-0.0777,0.17889-0.11665,0.35388-0.11665,0.52497,0,0.20222,0.031,0.3811,0.0934,0.53664,0.0623,0.15556,0.19053,0.29944,0.38496,0.43164,0.20221,0.13223,0.48609,0.26055,0.85163,0.38498,0.36552,0.12445,0.8555,0.25666,1.4699,0.39664,0.52887,0.11667,1.0266,0.26833,1.4932,0.45498,0.46663,0.17889,0.87496,0.40832,1.2249,0.6883,0.34997,0.27999,0.62606,0.6183,0.82829,1.0149,0.20219,0.38887,0.3033,0.85551,0.3033,1.3999,0,0.52886-0.11665,1.0188-0.34997,1.4699-0.23333,0.45109-0.5522,0.84773-0.95661,1.1899-0.40444,0.33443-0.87885,0.59497-1.4233,0.78162-0.54442,0.19443-1.1316,0.29165-1.7615,0.29165-0.47444,0-0.9333-0.03501-1.3766-0.10499-0.43554-0.06999-0.84774-0.16721-1.2366-0.29165-0.38111-0.12444-0.73108-0.26832-1.05-0.43164-0.31889-0.16333-0.59498-0.33442-0.82829-0.5133l0.58333-2.0999c0.26444,0.23332,0.55996,0.4472,0.88662,0.64163,0.33442,0.19444,0.67662,0.36165,1.0266,0.50164s0.69997,0.24888,1.0499,0.32665c0.35775,0.07,0.69217,0.10499,1.0033,0.10499,0.3422,0.000001,0.6533-0.04277,0.93329-0.12833,0.28775-0.09333,0.53273-0.20998,0.73496-0.34998,0.20996-0.14777,0.37328-0.31498,0.48997-0.50164,0.11665-0.19443,0.17498-0.39275,0.17498-0.59497,0-0.21776-0.0467-0.41997-0.14-0.60663-0.0856-0.19443-0.24886-0.3772-0.48998-0.5483-0.23331-0.17887-0.55997-0.34998-0.97993-0.5133-0.41221-0.16332-0.94495-0.32664-1.5982-0.48997-0.70772-0.1711-1.2872-0.37331-1.7382-0.60663-0.44332-0.23332-0.79329-0.48997-1.0499-0.76996-0.24887-0.27998-0.41997-0.58329-0.5133-0.90995-0.0934-0.32664-0.13998-0.67273-0.13998-1.0383,0-0.17887,0.0271-0.38886,0.0816-0.62996,0.0623-0.24109,0.15945-0.48996,0.29165-0.74662,0.13999-0.26442,0.31888-0.52107,0.53662-0.76996,0.22556-0.25664,0.50555-0.48218,0.83998-0.67663,0.33442-0.2022,0.72718-0.36552,1.1783-0.48997,0.45108-0.12442,0.97216-0.18664,1.5632-0.18666"/>
  </g>
  <path id="path2926" style="filter:url(#filter2940);fill:none;" d="m60.425,30.702c0,15.55-12.606,28.156-28.156,28.156s-28.156-12.606-28.156-28.156,12.606-28.156,28.156-28.156,28.156,12.606,28.156,28.156z" transform="matrix(1.8330952,0,0,1.8330952,66.380481,881.54898)"/>
 </g>
</svg>
